<?xml version="1.0" encoding="utf-8"?>
<!-- Generator: Adobe Illustrator 24.1.2, SVG Export Plug-In . SVG Version: 6.00 Build 0)  -->
<svg version="1.1" id="Layer_1" xmlns="http://www.w3.org/2000/svg" xmlns:xlink="http://www.w3.org/1999/xlink" x="0px" y="0px"
	 viewBox="0 0 562.5 837.5" style="enable-background:new 0 0 562.5 837.5;" xml:space="preserve">
<style type="text/css">
	.st0{fill:#2F1350;}
	.st1{fill:#54407F;}
	.st2{fill:#1A0A38;}
	.st3{fill:#C51372;}
	.st4{fill:#A30658;}
	.st5{fill:#7A0445;}
	.st6{fill:#E84189;}
	.st7{fill:#FFE5C0;}
	.st8{fill:#FFD0A4;}
	.st9{fill:#EBB889;}
	.st10{fill:#D98EA5;}
	.st11{fill:#2C234A;}
	.st12{fill:#1F0D3E;}
	.st13{fill:#FFB292;}
	.st14{fill:#87549F;}
	.st15{fill:#4E3478;}
	.st16{fill:#B27151;}
	.st17{fill:#FFFFFF;}
</style>
<g>
	<path class="st0" d="M200.9,498.5c-20.5,6-42.2,7-63,2.2c-23.8-5.5-51.2-19.4-69.2-52.2c-38-69,47.5-178.7,117.4-222.7
		s139-85,229.6-89.1c90.6-4.1,116.5,66.7,112.2,111.5C523.6,292.4,500.1,411.5,200.9,498.5z"/>
	<path class="st1" d="M415.6,136.7C325,140.8,256,181.7,186,225.7c-7.9,5-16.1,10.8-24.2,17.4c68.9-43.3,137.2-83.1,226.5-87.2
		c90.6-4.1,116.5,66.7,112.2,111.5c-2.6,27-12.4,82.1-88.1,140.7c100.7-65.5,112.5-130,115.4-160
		C532.1,203.3,506.3,132.5,415.6,136.7z"/>
	<path class="st2" d="M231.5,475.5c-15.6,4.5-32.2,5.4-48.1,1.7c-18.1-4.2-39-14.8-52.8-39.8c-29-52.7,36.2-136.3,89.6-169.9
		c53.3-33.6,106-64.8,175.2-68c69.1-3.1,88.9,50.9,85.6,85.1C477.7,318.2,459.8,409.1,231.5,475.5z"/>
	<path class="st0" d="M82,156.7C93.7,154.1,133,104,133,104c4.3,5.6,8.6,1.7,8.6,1.7s4.7,15.5,7.8,30.6c3,15.1,12.1,56.5,12.1,56.5
		s-5.6,6-6.9,12.5c-1.3,6.5,9.9,4.7,9.9,4.7c-0.6,11.4-0.3,24.7-0.1,30.9c7.3-5.7,14.6-10.9,21.7-15.4c36.5-23,72.7-45.1,112-61.6
		c0.4-0.3,0.7-0.5,0.7-0.5s0-6.5-2.6-11.2c-2.6-4.7-12.9-3.9-12.9-3.9s5.2-8.2-6.9-11.8s-15.1-9.3-39.3-35.6
		c-24.2-26.3-61.7-66.5-85.4-71.6c-23.7-5.2-41.9,15.1-55.1,35.8s-35.5,52.2-35.5,52.2S33.7,104.9,30.2,104
		c-3.5-0.9-3.5,7.8,9.5,25.9C52.7,148.1,70.4,159.3,82,156.7z"/>
	<path class="st3" d="M253.4,256.8c0,0-50.1,28.1-63.9,63.3c-13.8,35.1-13.8,111.9-12.9,142.2c0.9,30.2-12.1,50.1-24.2,71.6
		c-12.1,21.6-18.1,45.7-10.4,78.5c0,0,0.6-38,21.5-58.7c0,0-20.6,59.6,32.5,103.6c53.1,44,168.8,51.8,226.6-3.5
		s51.8-122.6,41.4-165.7s-17.7-75.5-14.7-101.8c3-26.3,3-26.3,3-26.3s12.5-9.1,13.8-32.8c1.3-23.7-13.8-47.5-28.5-57.8
		c0,0,26.8,6.9,45.7,32.8c0,0-15.5-42.7-56.1-52.7c-40.6-9.9-50.1,0-50.1,0S308.2,224.5,253.4,256.8z"/>
	<path class="st4" d="M216.2,373.3c0,0,38-9.5,57.2-38.8c19.2-29.3,20.4-41.9,20.4-41.9s13.5,9.5,13.5,25c0,0,19.9-20.3,14.9-51.8
		c0,0-1.5-9.7,14-4.2c15.5,5.5,32.8,22,32.8,22s-5.2-15.2-14.7-24.9c-9.5-9.7-29.5-19.1-45.7-17.7c-16.2,1.5-40.9,0.4-83.9,35.7
		c-27.4,17.9-41.3,47-44.4,84.9c-3.1,37.9-3.7,54-3.7,54s2-24.7,7.9-42.4c0,0-2.7,35.2,2,67.9C186.5,441.2,187.8,391.9,216.2,373.3z
		"/>
	<path class="st4" d="M415.9,458.1c-8.5-66.4-171.2-92.5-181.5-24.3l-15.5-11.7c0,0,1,15.7-12.5,51.2c-13.4,35.5-30,68.9-17.5,115.4
		c0,0,1.8-56.1,19-81.3c7-10.3,12.8-18.8,17.2-25.4c-3.2,11.7-7.4,25.1-13.1,39.7c-19.9,51-17.3,109.2,40.1,134
		c57.4,24.8,139.7,6.7,159.8-55.5C432,538.2,424.5,524.5,415.9,458.1z"/>
	<g>
		<g>
			<path class="st5" d="M234.4,433.8c0.5,7.3-0.1,14.7-1,22c-0.9,7.3-2.4,14.5-4.2,21.6c-1.8,7.1-4,14.2-6.5,21.1
				c-1.3,3.5-2.4,6.9-3.6,10.4c-0.3,0.9-0.5,1.7-0.8,2.6l-0.7,2.7l-0.7,2.7c-0.2,0.9-0.5,1.8-0.6,2.7c-3.2,14.3-4.6,29-5.2,43.6
				c-0.3,7.3-0.3,14.7-0.2,22c0.1,7.3,0.5,14.7,1.1,22c-0.8-7.3-1.3-14.6-1.6-22c-0.2-7.3-0.3-14.7-0.1-22c0.2-7.3,0.7-14.7,1.5-22
				l0.6-5.5l0.8-5.5c0.5-3.7,1.3-7.2,2-10.9c0.2-0.9,0.4-1.8,0.6-2.7l0.7-2.7l0.7-2.7c0.2-0.9,0.5-1.8,0.8-2.6
				c1.2-3.5,2.4-7,3.6-10.4c2.6-6.9,4.7-13.9,6.7-21c1.9-7.1,3.4-14.3,4.5-21.5C234,448.4,234.7,441.1,234.4,433.8z"/>
		</g>
		<g>
			<path class="st5" d="M255.4,447.4l-1.2,12.4l-1.3,12.4l-2.6,24.8l-2.6,24.8l-2.5,24.8c0.4-8.3,1.1-16.6,1.8-24.9
				c0.7-8.3,1.5-16.6,2.4-24.8c0.9-8.3,1.8-16.5,2.8-24.8C253.1,463.8,254.2,455.6,255.4,447.4z"/>
		</g>
		<g>
			<path class="st5" d="M273.4,467.4c-1.5,5.2-2.9,10.5-4.3,15.8c-1.3,5.3-2.6,10.6-3.7,15.9c-2.3,10.6-4.3,21.3-5.7,32.1
				c-0.7,5.4-1.4,10.8-1.8,16.2c-0.2,2.7-0.4,5.4-0.5,8.1c-0.1,2.7-0.2,5.4-0.2,8.1c0,5.4,0.1,10.9,0.6,16.3
				c0.5,5.4,1.3,10.8,2.6,16.1c-2.9-10.5-3.9-21.5-4-32.4c-0.1-5.5,0.2-10.9,0.6-16.3c0.4-5.4,1-10.9,1.7-16.3
				c1.5-10.8,3.5-21.5,5.9-32.1C267.2,488.3,270,477.8,273.4,467.4z"/>
		</g>
		<g>
			<path class="st5" d="M373.3,466.5c-0.1,6.7-0.2,13.4-0.4,20.2c-0.2,6.7-0.5,13.4-0.8,20.2c-0.7,13.4-1.6,26.9-2.8,40.3
				c-0.6,6.7-1.3,13.4-2.2,20.1c-0.8,6.7-1.7,13.4-2.8,20c-2.3,13.2-4.9,26.6-9.8,39.1c2.4-6.3,4-12.8,5.5-19.4
				c1.4-6.6,2.6-13.2,3.6-19.8c2-13.3,3.6-26.6,4.8-40c1.3-13.4,2.2-26.8,3.1-40.2c0.4-6.7,0.8-13.4,1.1-20.1
				C372.8,480,373.1,473.3,373.3,466.5z"/>
		</g>
		<g>
			<path class="st5" d="M403.8,462.9c1.9,11.3,3.1,22.6,4.1,34c1,11.4,1.5,22.8,1.7,34.2c0.1,11.4-0.2,22.8-1,34.2
				c-0.9,11.4-2.5,22.7-4.8,33.9c0.9-5.6,2-11.2,2.5-16.9c0.8-5.6,1.1-11.3,1.6-17c0.7-11.4,1-22.8,0.8-34.2
				c-0.1-11.4-0.7-22.8-1.5-34.1c-0.4-5.7-0.9-11.4-1.5-17C405.2,474.2,404.6,468.6,403.8,462.9z"/>
		</g>
		<g>
			<path class="st5" d="M224.7,276.8c-4,7.6-7.5,15.5-10.5,23.5c-3.1,8-5.7,16.2-7.7,24.5c-2,8.3-3.5,16.8-3.9,25.4
				c-0.4,8.6-0.6,17.2-0.9,25.8c-0.3,8.6-0.7,17.2-1.5,25.8c-0.7,8.6-1.8,17.1-3.3,25.6c-2.9,17-7.6,33.6-13.6,49.7
				c2.7-8.2,5.4-16.3,7.5-24.7l0.8-3.1l0.7-3.1c0.5-2.1,1-4.2,1.4-6.3l1.3-6.3c0.4-2.1,0.7-4.2,1.1-6.3c1.4-8.5,2.5-17,3.1-25.6
				c0.7-8.6,1.1-17.1,1.4-25.7c0.3-8.6,0.5-17.2,1-25.8c0.5-8.6,1.9-17.2,4.1-25.5C210,308,216.5,291.9,224.7,276.8z"/>
		</g>
		<g>
			<path class="st5" d="M272.6,248c3,11.2,4,22.9,3.4,34.4c-0.3,5.8-1.2,11.6-2.6,17.2l-0.5,2.1l-0.6,2.1c-0.4,1.4-0.8,2.8-1.3,4.2
				l-1.5,4.1c-0.5,1.4-1.1,2.7-1.7,4c-4.8,10.6-11.3,20.3-18.8,29.2c-3.7,4.4-7.7,8.7-11.7,12.8c-4,4.1-8.2,8.2-12.2,12.4
				c7.7-8.6,16-16.7,23.3-25.7c7.3-8.9,13.8-18.6,18.4-29.1c0.6-1.3,1.2-2.6,1.7-4l1.5-4c0.5-1.3,0.9-2.7,1.3-4.1l0.6-2.1l0.5-2.1
				c0.3-1.4,0.7-2.8,1-4.2l0.8-4.2c0.4-2.9,0.8-5.7,1-8.6c0.4-5.7,0.4-11.5,0-17.3C274.8,259.4,274,253.6,272.6,248z"/>
		</g>
		<g>
			<path class="st5" d="M282.3,244.7c2.4,2.3,4.1,5.2,5.6,8.1c1.5,3,2.6,6.1,3.6,9.3c1.8,6.4,2.6,13,2.9,19.7
				c0.3,6.6-0.1,13.3-1.2,19.9l-0.5,2.5c-0.2,0.8-0.3,1.6-0.5,2.4l-1.4,4.8c-0.5,1.6-1.1,3.1-1.7,4.7c-0.3,0.8-0.6,1.6-0.9,2.3
				l-1.1,2.3l-1.1,2.3l-0.5,1.1l-0.6,1.1l-2.5,4.3c-0.9,1.4-1.8,2.8-2.7,4.2c-0.9,1.4-1.9,2.7-2.9,4c-1.9,2.7-4.1,5.2-6.3,7.7
				c-1.1,1.2-2.3,2.4-3.4,3.6l-1.7,1.8l-1.8,1.7c-4.7,4.6-9.9,8.9-15.1,12.9c-5.3,4-10.8,7.7-16.3,11.4c5.5-3.8,10.8-7.6,16-11.7
				c5.2-4.1,10.2-8.4,14.9-13.1l1.8-1.7l1.7-1.8c1.1-1.2,2.3-2.4,3.4-3.6c2.1-2.5,4.3-5,6.2-7.7c1-1.3,2-2.6,2.9-4
				c0.9-1.4,1.8-2.7,2.7-4.1l2.4-4.3l0.6-1.1l0.5-1.1l1.1-2.2l1.1-2.2c0.3-0.8,0.6-1.5,0.9-2.3c0.6-1.5,1.2-3.1,1.7-4.6l1.4-4.7
				c0.3-0.8,0.4-1.6,0.5-2.4l0.5-2.4c0.2-0.8,0.3-1.6,0.5-2.4l0.3-2.5l0.3-2.5c0.1-0.8,0.2-1.6,0.2-2.5l0.2-4.9c0-1.6,0-3.3,0-4.9
				c-0.2-6.6-0.9-13.2-2.6-19.6c-0.9-3.2-1.9-6.3-3.3-9.3C286.3,250,284.6,247.1,282.3,244.7z"/>
		</g>
		<g>
			<path class="st5" d="M298.1,241.7c17.4-0.2,34.9,1.4,51.9,5.4c4.2,1,8.5,2.1,12.6,3.5c4.1,1.4,8.2,2.9,12.2,4.7
				c4,1.8,7.9,3.8,11.6,6.2c3.7,2.4,7.2,5,10.4,8c6.3,6.1,12.3,12.3,17.9,19.1c5.6,6.7,10.6,14,14.2,21.9l0.7,1.5l0.6,1.5l1.2,3.1
				l0.3,0.8l0.2,0.8l0.5,1.6l0.9,3.2c0.4,2.1,0.9,4.3,1.2,6.4l0.4,3.3c0.1,1.1,0.3,2.2,0.3,3.3c0.6,8.7-0.1,17.4-1.4,26.1
				c1.1-8.6,1.6-17.4,0.9-26c0-1.1-0.2-2.2-0.3-3.2l-0.4-3.2c-0.3-2.1-0.9-4.2-1.3-6.4l-0.9-3.1l-0.5-1.6l-0.2-0.8l-0.3-0.8l-1.2-3
				l-0.6-1.5l-0.7-1.5c-3.7-7.8-8.6-15-14.2-21.7c-5.6-6.7-11.7-12.9-17.9-18.9c-3.1-3-6.6-5.6-10.2-7.9c-3.6-2.4-7.5-4.4-11.4-6.2
				c-3.9-1.8-8-3.4-12.1-4.7c-4.1-1.4-8.3-2.6-12.5-3.6c-8.4-2.1-17-3.5-25.7-4.5C315.5,242.3,306.8,241.7,298.1,241.7z"/>
		</g>
	</g>
	<path class="st6" d="M483.4,302.1c0,0-15.5-42.7-56.1-52.6c-40.6-9.9-50.1,0-50.1,0s53.1,10.8,66.9,47.9
		c13.8,37.1,1.8,45.7-4.2,64.4c-6.1,18.7-0.9,80.1,10.9,124.4c13.8,51.9-0.6,95.2-19.1,126.3c-18.6,31.1-30.6,50-77.2,73.4
		c-2.9,1.4-5.8,2.8-8.6,4c29.2-5,56.6-16.6,76.8-36c57.8-55.2,51.8-122.6,41.4-165.7s-17.7-75.5-14.7-101.8c3-26.3,3-26.3,3-26.3
		s12.5-9.1,13.8-32.8c1.3-23.7-13.8-47.5-28.5-57.8C437.6,269.3,464.4,276.2,483.4,302.1z"/>
	<path class="st0" d="M322.5,507.4c0,0-26.8,5.8-33.7,9.6c-6.9,3.9-13.7,23.4-16.5,45.9c-2.8,22.4-2.8,34.8,8.2,36.3
		c0,0,18.1,3.2,39.1,2.6c21-0.6,41.1-9.5,41.1-9.5s0.6-19.3,0-29.1L384,588c0,0,11.2-1.4,12.9-11.2c0,0-17.3-32.5-24.5-44.6
		c-7.2-12.1-7.9-19.9-33.9-24.7H322.5z"/>
	<path class="st7" d="M232.1,376.8c0,0-10.9-13.2-23.6-6.3c-12.7,6.9-8.1,67.9,25.9,63.3c0,0,9.3,30.2,24.2,35.7
		c14.8,5.5,40.3,12.1,50.1,14.4c9.8,2.3,14.4,5.8,13.8,13.2c-0.6,7.5,0,10.4,0,10.4s0,6.3,5.4,8.9c5.5,2.6,9.2-2.3,10.4-6
		c1.2-3.7-1.4-12.9,8.6-17c10.1-4,50.6-10.6,66.5-21.6c15.8-10.9,21-16.7,20.4-42.6c-0.6-25.9-3.4-44.3,0-60.7
		c0,0,2.5-19.6-14.4-35.7c0,0,0.3,16.7-5.8,21c0,0,3.7-29.6-31.9-55.8c0,0,6,27.9-9.2,47.5c0,0,8.9-52.4-36.5-75.1
		c0,0,15,57.3-51.5,87.8c0,0,14.4-10.6,15.2-32.2C299.7,325.9,266.3,375.4,232.1,376.8z"/>
	<g>
		<path class="st8" d="M354.3,283.8c-4.8-5-10.9-9.6-18.4-13.4c0,0,15,57.3-51.5,87.8C360.2,345.8,354.4,284,354.3,283.8z"/>
		<path class="st8" d="M328.3,502.7c0.7-10,1.4-20.2-10.3-26.2c-11.8-6-39.2-10.4-55.6-23s-23.3-27.9-23.3-27.9
			c-19-0.4-24.6-20.3-19.4-33.2c5.2-12.9,16.8-10,16.8-10c34.1-1.5,47.9-24.3,47.9-24.3s14.4-10.6,15.2-32.2
			c0,0-33.4,49.5-67.6,50.9c0,0-10.9-13.2-23.6-6.3c-12.7,6.9-8.1,67.9,25.9,63.3c0,0,9.3,30.2,24.2,35.7
			c14.8,5.5,40.3,12.1,50.1,14.4c9.8,2.3,14.4,5.8,13.8,13.2c-0.6,7.5,0,10.4,0,10.4s0,6.3,5.4,8.9c2,0.9,3.8,0.9,5.3,0.3
			C330.2,514.4,327.8,510.1,328.3,502.7z"/>
	</g>
	<g>
		<path class="st9" d="M210.2,393.7c-0.3-2.6,0.1-5.3,1-7.8c0.5-1.2,1.2-2.4,2.2-3.4c0.2-0.3,0.5-0.5,0.8-0.7
			c0.3-0.2,0.5-0.4,0.8-0.6c0.6-0.3,1.2-0.7,1.9-0.8l1-0.3c0.3-0.1,0.7-0.1,1-0.1l1-0.1c0.4,0,0.7,0.1,1.1,0.1
			c1.5,0.3,2.6,1.2,3.5,2.3c0.9,1.1,1.6,2.2,2.1,3.5c0.6,1.2,1,2.5,1.5,3.7c1.5,5.1,2.4,10.4,2.9,15.6c0.5,5.3,0.8,10.5,0.8,15.8
			c-0.2-2.6-0.4-5.3-0.7-7.9c-0.2-2.6-0.5-5.2-0.9-7.8c-0.7-5.2-1.6-10.4-3.1-15.4c-0.4-1.2-0.8-2.5-1.4-3.6c-0.5-1.2-1.2-2.3-2-3.3
			c-0.8-1-1.8-1.8-3-2c-0.3,0-0.6-0.1-0.9-0.1l-0.9,0.1c-0.3,0-0.6,0-0.9,0.1l-0.9,0.2c-0.6,0.1-1.2,0.5-1.8,0.7
			c-0.3,0.1-0.5,0.4-0.8,0.5c-0.3,0.2-0.5,0.3-0.7,0.6c-1,0.8-1.6,2-2.2,3.1C210.6,388.4,210.2,391.1,210.2,393.7z"/>
	</g>
	<g>
		<path class="st9" d="M219.7,398.9c0.6-0.7,1.4-1.3,2.3-1.7c0.9-0.4,1.8-0.7,2.8-0.8c1-0.1,2,0.1,2.9,0.5c0.9,0.4,1.6,1.2,2.1,2
			c-0.8-0.5-1.5-1-2.4-1.3c-0.8-0.2-1.7-0.3-2.5-0.3C223.1,397.6,221.4,398.2,219.7,398.9z"/>
	</g>
	<g>
		<path class="st10" d="M320.4,361.8c1.6-2.6,4-4.6,6.9-5.7c0.7-0.3,1.5-0.4,2.2-0.6c0.4-0.1,0.8-0.1,1.2-0.1c0.4,0,0.8,0,1.2,0
			c1.5,0,3,0.6,4.4,1.2c-1.5-0.3-2.9-0.5-4.4-0.4c-1.4,0.1-2.9,0.3-4.2,0.8c-1.3,0.5-2.6,1.2-3.8,2
			C322.6,359.9,321.5,360.8,320.4,361.8z"/>
	</g>
	<g>
		<path class="st10" d="M408.7,358.8c2.7-0.9,5.7-0.9,8.5,0.1c0.7,0.3,1.3,0.6,2,1c0.3,0.2,0.6,0.4,0.9,0.7c0.3,0.2,0.6,0.5,0.8,0.7
			c1.1,1,1.7,2.3,2.2,3.7c-0.9-1.1-1.7-2.2-2.8-3.1c-1-0.9-2.2-1.6-3.5-2c-1.3-0.5-2.6-0.8-4-0.9
			C411.5,358.8,410.1,358.7,408.7,358.8z"/>
	</g>
	<g>
		<path class="st9" d="M375.9,417.4c0.8-0.8,1.9-1.4,3.1-1.7c1.2-0.3,2.4-0.3,3.6-0.1c1.2,0.2,2.3,0.7,3.3,1.3c1,0.7,2,1.5,2.6,2.6
			c1.1,2.3,0.6,5.2-1.1,6.9c-0.8,0.9-1.9,1.5-3.1,1.9c-1.2,0.3-2.4,0.2-3.5-0.1c1.2,0.1,2.3,0,3.4-0.4c1-0.4,2-1.1,2.6-1.9
			c1.4-1.7,1.7-4.1,0.8-6c-1-1.9-3.1-3-5.2-3.7c-1.1-0.3-2.2-0.4-3.3-0.2C378,416.3,376.9,416.7,375.9,417.4z"/>
	</g>
	<g>
		<path class="st9" d="M342.3,441.2c-0.5,1.9-0.7,4-0.5,5.9c0.2,0.9,0.5,1.9,0.9,2.7c0.5,0.8,1.2,1.4,2,1.9c1.6,1,3.6,1.7,5.4,1.2
			c1.8-0.6,3.1-2.2,4.2-3.9c-0.4,0.9-0.9,1.8-1.5,2.7c-0.6,0.8-1.5,1.5-2.5,1.9c-1,0.4-2.2,0.4-3.2,0.2c-1.1-0.2-2-0.7-2.9-1.2
			c-0.9-0.6-1.7-1.3-2.3-2.3c-0.5-1-0.8-2-0.9-3C340.9,445.1,341.4,443.1,342.3,441.2z"/>
	</g>
	<path class="st11" d="M341.4,401.5c0,8.7-5.4,15.7-12.1,15.7s-12.1-7-12.1-15.7c0-8.7,5.4-15.7,12.1-15.7S341.4,392.9,341.4,401.5z
		"/>
	<path class="st11" d="M428,402.8c0,8.7-5.4,15.7-12.1,15.7c-6.7,0-12.1-7-12.1-15.7c0-8.7,5.4-15.7,12.1-15.7
		C422.6,387.2,428,394.2,428,402.8z"/>
	<g>
		<path class="st12" d="M300.3,587.1c-18.2-5.4-21.6-27.7-15.9-47.7c5.2-18.1,12.3-19.8,16.7-26.8c-5.2,1.5-10,3.1-12.4,4.4
			c-6.9,3.9-13.7,23.4-16.5,45.9c-2.8,22.4-2.8,34.8,8.2,36.3c0,0,18.1,3.2,39.1,2.6c21-0.6,41.1-9.5,41.1-9.5s0.6-8.7,0-18.5
			C360.7,573.8,318.5,592.6,300.3,587.1z"/>
		<path class="st12" d="M391.3,585.1L359,545.5l1.7,17.7L384,588C384,588,387.8,587.5,391.3,585.1z"/>
	</g>
	<path class="st13" d="M301.1,432.8c0,2.4-4.1,4.4-9.1,4.4c-5,0-9.1-2-9.1-4.4s4.1-4.4,9.1-4.4C297.1,428.5,301.1,430.4,301.1,432.8
		z"/>
	<path class="st13" d="M434,431.7c0,2.4-4.1,4.4-9.1,4.4s-9.1-2-9.1-4.4c0-2.4,4.1-4.4,9.1-4.4S434,429.3,434,431.7z"/>
	<path class="st7" d="M298.8,575.3c0,0-25.6,6.3-18.4,23.9c0,0,24.7-0.6,42.3-2.9c17.5-2.3,24.5-5.5,25.9-9.1c0,0-0.3,4.3,3.9,3.6
		s4.3-5.5,4.3-5.5s1.9-0.9,3-4.3c0,0,4.2,1.3,5-1.3c0.9-2.6-0.3-6.6-7.8-9.2s-9.5,2.4-15.2,8.3c0,0-9.2,0-18.7-0.1
		C313.6,578.6,298.8,575.3,298.8,575.3z"/>
	<path class="st7" d="M384,588c0,0,15.2,16.7,18.9,23.4c3.7,6.7,8,15.8,10.8,16.2c2.8,0.4,3.7-1.9,2.4-5.2c-1.3-3.2-0.6-6.3-0.6-6.3
		s18.6,1.1,20.7,0.9c2.2-0.2,1.5-3.2-4.5-4.5c-6-1.3-3-4.1,3.7-4.6s6-4.6-1.3-4.4c-7.3,0.2-8.8-1.5-8.8-1.5s4.7-3.7,5.2-4.5
		s-1.9-1.9-7.8,0.2c-5.8,2.2-8.7,3.7-10.6,2.8c-1.9-0.9-15-23.6-15-23.6S394.4,587.3,384,588z"/>
	<g>
		<path class="st8" d="M421.4,613.3c-10.2,0.9-14.1-4-17.1-6.9c-2-2-10.1-12.9-15.1-19.8c-1.5,0.7-3.2,1.2-5.2,1.4
			c0,0,15.2,16.7,18.9,23.4c3.7,6.7,8,15.8,10.8,16.2c2.8,0.4,3.7-1.9,2.4-5.2c-1.3-3.2-0.6-6.3-0.6-6.3s18.6,1.1,20.7,0.9
			C436.1,617,431.6,612.4,421.4,613.3z"/>
		<path class="st8" d="M436.1,617c0.8-0.1,1.2-0.6,1.1-1.3L436.1,617z"/>
	</g>
	<path class="st14" d="M384,588c0,0-3.1,4-2.4,6.3c0.6,2.4,5.7,2.7,6.6-1.7c0,0,5.3,1.4,6.1-3.9c0,0,6.1,1.4,6.7-5.1
		c0,0,4.5-2.3,3-8.4c-1.5-6-7,1.4-7,1.4S394.4,585.7,384,588z"/>
	<g>
		<path class="st15" d="M298.8,575.3c-0.3-2.3-0.5-4.7-0.6-7.1c-0.1-2.4-0.1-4.8,0.3-7.1c0.9-4.7,2-9.3,2.6-13.9
			c0.4-2.3,0.7-4.7,0.7-7c0.1-2.3-0.2-4.6-0.8-6.9c-0.6-2.3-1.4-4.5-2.5-6.5c-0.6-1-1.2-2-2-2.9c-0.8-0.8-1.7-1.7-2.9-1.8
			c1.2,0.1,2.3,0.8,3.1,1.6c0.8,0.9,1.5,1.8,2.2,2.8c1.2,2.1,2.1,4.3,2.8,6.6c0.7,2.3,1,4.7,0.9,7.1c-0.1,2.4-0.3,4.8-0.7,7.1
			c-0.8,4.7-1.8,9.3-2.9,13.9c-0.5,2.3-0.6,4.6-0.6,7C298.6,570.6,298.7,572.9,298.8,575.3z"/>
	</g>
	<g>
		<path class="st15" d="M360.7,563.2c-0.2-2.1-0.2-4.2-0.3-6.3c-0.1-2.1-0.1-4.2-0.1-6.3c0-2.1,0-4.2,0.1-6.3l0.1-3.2
			c0.1-1.1,0.1-2.1,0.2-3.2c0.1,1,0.2,2.1,0.3,3.2l0.2,3.2c0.1,2.1,0.1,4.2,0.1,6.3c0,2.1,0,4.2-0.2,6.3
			C361,559,360.9,561.1,360.7,563.2z"/>
	</g>
	<polygon class="st16" points="359,571.3 423,510.4 362.9,573.8 	"/>
	<path class="st14" d="M322.5,507.4c0,0-9.8,3.8-11.5,11.4c-1.7,7.6,4.2,15.1,11.5,12.9c7.3-2.2,7.9-14.7,7.9-14.7
		S324,515.9,322.5,507.4z"/>
	<path class="st14" d="M338.6,507.4c0,0,8.6,3.4,9.9,9.6c1.3,6.3-4.7,16-11.4,13.2c-6.7-2.8-6.7-13.2-6.7-13.2
		S338.2,517.8,338.6,507.4z"/>
	<path class="st0" d="M429,676.7c0,0-20.1-42-68.3-84.4c0,0-20.1,8.9-41.1,9.5c-9.7,0.3-18.7-0.3-25.7-0.9l-6.1-1.9
		c0,0-40.4,52.3-49.9,73.9c-9.5,21.6-9.5,21.6-9.5,21.6s14.7,11.7,23.7,12.5c0,0-4.7,8.6,5.2,12.5c9.9,3.9,31.1,17.3,67.8,13.4
		c0,0-0.5,5.6,8.8,3.9c9.3-1.7,61.2-12.1,63.1-21.6c0,0,22.6-4.3,30.4-19l-4.3-8.2C423,687.9,426.8,685.4,429,676.7z"/>
	<path class="st12" d="M394.9,709.5c-28,21.5-69.9,8.2-69.9,8.2c-36.7,9.5-67.3-27.2-57.4-58.5c7.4-23.4,27.8-47.1,37.6-57.6
		c-4.2-0.2-8-0.5-11.4-0.8l-6.1-1.9c0,0-40.4,52.3-49.9,73.9c-9.5,21.6-9.5,21.6-9.5,21.6s14.7,11.7,23.7,12.5c0,0-4.7,8.6,5.2,12.5
		c9.9,3.9,31.1,17.3,67.8,13.4c0,0-0.5,5.6,8.8,3.9c9.3-1.7,61.2-12.1,63.1-21.6c0,0,22.6-4.3,30.4-19
		C406.6,715.6,394.9,709.5,394.9,709.5z"/>
	<g>
		<path class="st15" d="M252.1,706.9c1.2-5.3,2.7-10.6,4.2-15.9c1.5-5.3,3.2-10.5,5-15.7c1.8-5.2,3.7-10.3,5.7-15.4
			c2-5.1,4.2-10.1,6.5-15.1c-0.9,2.6-2,5.1-2.9,7.7c-1,2.6-1.9,5.1-2.9,7.7c-1.9,5.1-3.7,10.3-5.4,15.5c-1.8,5.2-3.5,10.4-5.2,15.6
			c-0.8,2.6-1.7,5.2-2.5,7.8L252.1,706.9z"/>
	</g>
	<g>
		<path class="st15" d="M325,732.8l-1-8.8l-0.9-8.8l-1.8-17.6l-3.4-35.2c1,5.8,1.7,11.7,2.4,17.5c0.7,5.9,1.3,11.7,1.9,17.6
			c0.5,5.9,1.1,11.7,1.5,17.6C324.3,721.1,324.7,726.9,325,732.8z"/>
	</g>
	<g>
		<path class="st15" d="M396.9,715.1l-3-7.8l-2.9-7.8l-5.9-15.5l-5.9-15.5l-5.9-15.5c2.4,5,4.5,10.1,6.7,15.2
			c2.1,5.1,4.1,10.3,6.1,15.5c1.9,5.2,3.8,10.4,5.6,15.6C393.5,704.6,395.3,709.8,396.9,715.1z"/>
	</g>
	<g>
		<path class="st15" d="M423,687.9c-1.9-2.8-3.8-5.6-5.7-8.4c-1.9-2.8-3.8-5.6-5.8-8.3c-3.9-5.5-7.9-11-12-16.4
			c-4.1-5.4-8.3-10.7-12.6-16c-2.2-2.6-4.3-5.2-6.6-7.7c-2.2-2.6-4.6-5-6.9-7.5c5,4.6,9.7,9.6,14.1,14.7c4.4,5.1,8.7,10.5,12.8,15.9
			c4,5.5,8,11,11.8,16.6C415.9,676.4,419.5,682.1,423,687.9z"/>
	</g>
	<path class="st7" d="M348.9,733.6l8.1,34.6c8.6,3.9,12.1-4.3,12.1-4.3v-35.3l-2.9,0.8C360.1,731,354.1,732.4,348.9,733.6z"/>
	<path class="st7" d="M282.3,729.4L282.3,729.4l0,34.5c0,0,3.5,8.2,12.1,4.3l8.2-35.1C294.9,732.4,288.2,731.1,282.3,729.4z"/>
	<path class="st0" d="M292.4,768.9c0,0-3.2-5.9-6.7-8.5c-3.5-2.6-10.8,0.9-11.4,4.2c-0.6,3.3,2.4,5.3,1.1,8.1
		c-1.3,2.8-5.2,7.8-9.9,8c-4.7,0.2-4.5-5.4-2.7-7.1s2.7-6.9-1.2-6.3c-3.9,0.6-9.7,5.6-9.5,14.5c0.2,8.8,7.3,14.7,20.2,12.3
		c12.8-2.4,20.2-7.1,20.2-7.1v5.4l16-0.2c0,0,0.2-12.3-2.4-18.6c-2.6-6.3-3.3-9.1-10.6-10l-1.1,4.6L292.4,768.9z"/>
	<path class="st0" d="M358.9,768.9c0,0,3.2-5.9,6.7-8.5c3.5-2.6,10.8,0.9,11.4,4.2c0.6,3.3-2.4,5.3-1.1,8.1c1.3,2.8,5.2,7.8,9.9,8
		c4.7,0.2,4.5-5.4,2.7-7.1s-2.7-6.9,1.2-6.3c3.9,0.6,9.7,5.6,9.5,14.5c-0.2,8.8-7.3,14.7-20.2,12.3s-20.2-7.1-20.2-7.1v5.4l-16-0.2
		c0,0-0.2-12.3,2.4-18.6c2.6-6.3,3.3-9.1,10.6-10l1.1,4.6L358.9,768.9z"/>
	<g>
		<path class="st2" d="M133,104c-2.4-1.8-4.5-3.8-6.6-5.9c-2.1-2.1-4.1-4.2-5.9-6.6c2.4,1.8,4.5,3.8,6.6,5.9
			C129.1,99.5,131.1,101.7,133,104z"/>
	</g>
	<g>
		<path class="st2" d="M141.6,105.8c-0.9-2.4-1.7-4.7-2.5-7.1c-0.8-2.4-1.5-4.8-2.3-7.2c-0.7-2.4-1.4-4.8-2-7.3l-0.9-3.7
			c-0.3-1.2-0.6-2.4-0.8-3.7c0.5,1.2,0.9,2.4,1.3,3.5l1.2,3.6c0.8,2.4,1.5,4.8,2.3,7.2c0.7,2.4,1.4,4.8,2,7.3
			C140.4,100.9,141.1,103.3,141.6,105.8z"/>
	</g>
	<g>
		<path class="st2" d="M161.4,193c4.3-3.8,8.8-7.4,13.3-10.9c4.6-3.5,9.3-6.8,14-10c4.8-3.2,9.7-6.2,14.7-9c5-2.8,10.1-5.4,15.4-7.6
			c-2.5,1.4-5.1,2.6-7.6,4c-2.5,1.3-5,2.8-7.5,4.3c-4.9,3-9.8,6-14.5,9.2c-4.8,3.2-9.4,6.5-14.1,9.8c-2.3,1.7-4.6,3.4-6.9,5.1
			C166,189.5,163.7,191.2,161.4,193z"/>
	</g>
	<path class="st1" d="M296.1,152.4c-2.6-4.7-12.9-3.9-12.9-3.9s5.2-8.2-6.9-11.8s-15.1-9.3-39.3-35.6
		c-24.2-26.3-61.7-66.5-85.4-71.6c-23.7-5.2-41.9,15.1-55.1,35.8s-35.5,52.2-35.5,52.2S33.7,104.9,30.2,104c0,0,29.8,25.9,36.7,23.3
		c6.9-2.6,27.6-50.3,44.3-67.6c16.7-17.3,36.3-28.2,55.8-8.6c19.6,19.6,61,66.7,77.1,80s24.7,9.8,24.7,23c0,0,10.4,3.3,6.9,20.1
		c0,0,0,0.1,0,0.1c7.3-3.5,14.7-7,22.2-10.1c0.4-0.3,0.7-0.5,0.7-0.5S298.7,157.1,296.1,152.4z"/>
	<path class="st2" d="M164.2,217c-0.3,9.5,0,19.1,0.1,24.1c7.3-5.7,14.6-10.9,21.7-15.4c36.5-23,72.7-45.1,112-61.6
		c0.4-0.3,0.7-0.5,0.7-0.5s0-3.5-1-7.2C203.6,182.7,172.6,208.2,164.2,217z"/>
	<g>
		<path class="st2" d="M283.1,148.5c-2.8,1.1-5.6,2.2-8.4,3.4c-2.8,1.2-5.6,2.3-8.3,3.6c-2.8,1.2-5.5,2.5-8.3,3.8
			c-1.4,0.6-2.7,1.3-4.1,2c-1.4,0.6-2.7,1.4-4.1,2c2.5-1.7,5.2-3.2,7.8-4.6c2.7-1.4,5.4-2.8,8.2-4c2.8-1.2,5.6-2.4,8.5-3.4
			C277.3,150.2,280.2,149.2,283.1,148.5z"/>
	</g>
	<path class="st2" d="M175.1,204.7c-11.5,1.2-4-16.1-4-16.1s-6.3-32.8-14.4-61.3c-8.1-28.5-15.1-29.6-15.1-29.6
		c-9.4,2.9-11.4-2.4-11.4-2.4s-36.8,42-49.5,48.9c-12.5,6.8-31.3-3.2-31.9-3.5c11.3,11.5,24.1,17.9,33.2,15.9
		C93.7,154.1,133,104,133,104c4.3,5.6,8.6,1.7,8.6,1.7s4.7,15.5,7.8,30.6c3,15.1,12.1,56.5,12.1,56.5s-5.6,6-6.9,12.5
		c-1.3,6.5,9.9,4.7,9.9,4.7c-0.6,11.4-0.3,24.7-0.1,30.9c4.6-3.6,9.2-7,13.7-10.1L175.1,204.7z"/>
	<path class="st8" d="M347.8,584.5c0,0-21.7,6.6-43.3,7.1c-10.9,0.2-19-1.6-24.4-3.4c-1.3,3-1.6,6.7,0.2,11c0,0,24.7-0.6,42.3-2.9
		c17.5-2.3,24.5-5.5,25.9-9.1c0,0-0.3,4.3,3.9,3.6s4.3-5.5,4.3-5.5s1.9-0.9,3-4.3c0,0,0,0-5.5,3.5
		C348.9,588,347.8,584.5,347.8,584.5z"/>
	<path class="st4" d="M315.6,241.1c0,0,46,1.1,75.4,17.7c29.4,16.6,37,33,37,33s-25.4-28-79.3-33
		C294.8,253.8,315.6,241.1,315.6,241.1z"/>
	<g>
		<path class="st17" d="M333.9,399.8c5.1,0,5.1-7.9,0-7.9C328.8,391.8,328.8,399.8,333.9,399.8L333.9,399.8z"/>
	</g>
	<g>
		<path class="st17" d="M420.8,400.3c5.1,0,5.1-7.9,0-7.9C415.7,392.4,415.7,400.3,420.8,400.3L420.8,400.3z"/>
	</g>
	<path class="st14" d="M280.4,599.2c0,0,3.7,4.2,5.8,2.7c2-1.6,0-8,0-8s4.5,0,3.9-5.4c0,0,7.3,0.9,6.5-6.3c0,0,7-2.6,2.3-6.9
		C298.8,575.3,272.3,582.3,280.4,599.2z"/>
	<ellipse class="st12" cx="289.5" cy="555.3" rx="2.4" ry="4.7"/>
	<path class="st12" d="M287,538.7c0,1.9-0.6,3.4-1.4,3.4c-0.8,0-1.4-1.5-1.4-3.4c0-1.9,0.6-3.4,1.4-3.4
		C286.4,535.3,287,536.8,287,538.7z"/>
	<circle class="st12" cx="295" cy="712.3" r="5.4"/>
	<circle class="st12" cx="302.2" cy="701.1" r="1.8"/>
	<path class="st12" d="M347.3,713.7c0,1.1-0.9,2-2,2c-1.1,0-2-0.9-2-2c0-1.1,0.9-2,2-2C346.4,711.7,347.3,712.6,347.3,713.7z"/>
	<ellipse class="st12" cx="283.3" cy="668.2" rx="2.3" ry="4.3"/>
	<path class="st12" d="M372.3,552c0,0.7-0.6,1.4-1.4,1.4s-1.4-0.6-1.4-1.4c0-0.7,0.6-1.4,1.4-1.4S372.3,551.2,372.3,552z"/>
	<path class="st8" d="M302.4,733.7l0.1-0.6c-7.7-0.7-14.4-2-20.2-3.7h0v19C286.4,742.9,293,736.4,302.4,733.7z"/>
	<path class="st8" d="M369,729.2v-0.6l-2.9,0.8c-6,1.6-12,3-17.3,4.2l3.1,13.3C354,742.4,358.8,735,369,729.2z"/>
</g>
</svg>
