<svg id="Layer_1" data-name="Layer 1" xmlns="http://www.w3.org/2000/svg" xmlns:xlink="http://www.w3.org/1999/xlink" viewBox="0 0 550.02 785.99"><defs><style>.cls-1{fill:#ffbf59;}.cls-10,.cls-2{fill:#590800;}.cls-2{opacity:0.13;}.cls-12,.cls-3,.cls-5{fill:#b70400;}.cls-4{fill:url(#åçûìßííûé_ãðàäèåíò_10);}.cls-5{opacity:0.5;}.cls-6{fill:url(#åçûìßííûé_ãðàäèåíò_10-2);}.cls-7{fill:#cae7ef;}.cls-14,.cls-18,.cls-8{fill:#fff;}.cls-9{fill:url(#åçûìßííûé_ãðàäèåíò_3);}.cls-11{fill:url(#åçûìßííûé_ãðàäèåíò_3-2);}.cls-12{opacity:0.88;}.cls-13{fill:#5b1800;}.cls-14{opacity:0.43;}.cls-15{fill:#8c130d;}.cls-16{fill:#ff5b57;}.cls-17{fill:#8c0000;}.cls-18{opacity:0.26;}</style><linearGradient id="åçûìßííûé_ãðàäèåíò_10" x1="62.73" y1="503.75" x2="167.94" y2="503.75" gradientTransform="matrix(-1, 0, 0, 1, 675.49, 0)" gradientUnits="userSpaceOnUse"><stop offset="0" stop-color="#f93d31"/><stop offset="1" stop-color="#b70400"/></linearGradient><linearGradient id="åçûìßííûé_ãðàäèåíò_10-2" x1="328.09" y1="95.8" x2="328.09" y2="776.71" xlink:href="#åçûìßííûé_ãðàäèåíò_10"/><linearGradient id="åçûìßííûé_ãðàäèåíò_3" x1="282.29" y1="306.63" x2="360.32" y2="306.63" gradientTransform="matrix(-1, 0, 0, 1, 612.75, -21.43)" gradientUnits="userSpaceOnUse"><stop offset="0" stop-color="#a43113"/><stop offset="1" stop-color="#6f160d"/></linearGradient><linearGradient id="åçûìßííûé_ãðàäèåíò_3-2" x1="387.39" y1="297.05" x2="430.8" y2="297.05" gradientTransform="matrix(-1, 0, 0, 1, 675.49, 0)" xlink:href="#åçûìßííûé_ãðàäèåíò_3"/></defs><path class="cls-1" d="M520.2,152l21.52,55.51,8.78,22.64s22.84-16.4,35.49-42.73,19.07-74.7,6.85-76.08a.18.18,0,0,0-.13,0c-12.39-1.08-20.7,20.7-36.58,31.2S520.2,152,520.2,152Z" transform="translate(-62.73 -21.43)"/><path class="cls-2" d="M541.72,207.52l8.78,22.64s22.84-16.4,35.49-42.73,19.07-74.7,6.85-76.08c-2,9-8.87,36.75-24.53,63.34C554.41,198.36,545.5,205.41,541.72,207.52Z" transform="translate(-62.73 -21.43)"/><path class="cls-1" d="M221.24,112.73c.6,3.53,1.16,6.58,1.72,9.21,1,4.6,1.89,8,2.62,10.37a25.48,25.48,0,0,0,2.07,5.38l64.24-17.13s-2.36-1.72-5.89-4.56c-7-5.59-18.46-15.58-24.74-25.13-5.68-8.6-10.89-18.42-16.48-24.7-3.7-4.17-7.58-6.8-11.88-6.5C222.1,60.41,217.84,92.68,221.24,112.73Z" transform="translate(-62.73 -21.43)"/><path class="cls-2" d="M223,121.94c1,4.6,1.89,8,2.62,10.37L286,116c-7-5.59-18.46-15.58-24.74-25.13-5.68-8.6-10.89-18.42-16.48-24.7a252.67,252.67,0,0,1-4.52,28.19C236.81,110.84,227.65,118.84,223,121.94Z" transform="translate(-62.73 -21.43)"/><path class="cls-3" d="M154.6,368.36s-45.46,69-52.64,79.38-11,13.4-29.1,41.08C63.21,503.6,61,523,64,524.12s4.57-10.76,7.53-16.68a62.52,62.52,0,0,1,6.85-10.62s-2.69,5.38-5.51,21.79-.4,22.72,2.56,22.59,2.42-10.09,5.24-21.79a90.19,90.19,0,0,1,7-19.5s-2.55,5.52-2.28,20.17.53,20.58,4,20.44,2.69-14.25,3.76-20,2.56-18.15,2.56-18.15a159.37,159.37,0,0,0,.67,16.8c.81,6.46,1.21,14.66,4.17,15.2s2.42-12.24,3-18.15,1.07-19.1,2.28-20,7.4,5.38,8.48,10.49,3.49,8.2,6,7-.27-11.56-2.69-18.15S106.72,473,107.12,470.74s60.82-54,60.82-54S165.64,374.33,154.6,368.36Z" transform="translate(-62.73 -21.43)"/><path class="cls-4" d="M520.89,417.33s45.46,69,52.63,79.38,11.05,13.4,29.11,41.08c9.65,14.78,11.86,34.22,8.9,35.3S607,562.33,604,556.41a62.91,62.91,0,0,0-6.86-10.62s2.69,5.38,5.52,21.78.4,22.73-2.56,22.59-2.42-10.08-5.24-21.78a90.19,90.19,0,0,0-7-19.5s2.55,5.52,2.28,20.17-.54,20.58-4,20.44-2.69-14.25-3.77-20-2.55-18.16-2.55-18.16a159.53,159.53,0,0,1-.67,16.81c-.81,6.46-1.21,14.66-4.17,15.2s-2.42-12.24-3-18.16-1.08-19.09-2.29-20-7.39,5.38-8.47,10.49-3.49,8.2-6,7,.27-11.56,2.69-18.15S568.77,522,568.37,519.7s-60.82-54-60.82-54S509.85,423.3,520.89,417.33Z" transform="translate(-62.73 -21.43)"/><polygon class="cls-5" points="451.98 418.81 505.63 498.28 446.05 445.16 451.98 418.81"/><path class="cls-6" d="M145.94,467.63c5.72,50.91,18.63,104.69,20.05,167.08s43.76,117.64,43.76,117.64h17.47a11.52,11.52,0,0,1,.09-1.2c.47-7.19,4-44.92,24-73.41,22.2-31.54,122.67-7.87,145.61,13.64S456.44,771,456.44,771l10.71,5.72s34.47-72.42,33.78-199.35,30.81-168.55,47.33-257.92c8-43.16,9.77-95-9.73-137.82a.07.07,0,0,1,0-.09.46.46,0,0,1-.08-.21c-17.17-37.52-50.69-68.2-110.76-80.12A268.79,268.79,0,0,0,397.14,97c-4.17-.34-8.43-.64-12.82-.82-104.86-4.64-176.51,37.14-188.86,52.07a8.48,8.48,0,0,0-1.85,3.14c-2.49,10.76-1.46,26.72,7.19,58.26s1.76,85.89-33.35,136.27S140.17,416.73,145.94,467.63Z" transform="translate(-62.73 -21.43)"/><path class="cls-3" d="M467.14,776.72c.42,12.2-38.75,33.26-43.46,30.44s18.69-19,18.69-19-35.22,8.87-40.47,6.32,22.86-15.87,22.86-15.87-36.71.14-38.05-5.78S456.45,771,456.45,771Z" transform="translate(-62.73 -21.43)"/><path class="cls-3" d="M227.3,751.13s54.79,3.72,55.6,8-44.23,1.44-44.23,1.44,34.55,10.75,30.78,16.13S226,767.38,226,767.38s16.29,22.43,9.3,24.58-25.55-39.62-25.55-39.62Z" transform="translate(-62.73 -21.43)"/><ellipse class="cls-3" cx="325.03" cy="285.2" rx="81.06" ry="109.05"/><path class="cls-3" d="M202.13,283.72c0,18.91,6,35.95,15.52,47.85a50.83,50.83,0,0,0,4.66,5.09c2.54.22,5.36.49,8.35.85l2.41.26h.05c4.22.54,8.79,1.21,13.67,2.06,4.44.75,8.39,1.47,12,2.14,2.28.4,4.39.8,6.37,1.16q2,.33,3.69.66a41.58,41.58,0,0,0,5.89-4c14.2-11.33,23.74-32.21,23.74-56.11,0-36-21.58-65.12-48.18-65.12S202.13,247.77,202.13,283.72Z" transform="translate(-62.73 -21.43)"/><ellipse class="cls-7" cx="321.57" cy="285.2" rx="72.15" ry="98.25"/><ellipse class="cls-8" cx="318.15" cy="285.2" rx="68.72" ry="93.59"/><ellipse class="cls-9" cx="291.45" cy="285.2" rx="39.01" ry="53.13"/><path class="cls-10" d="M320.18,306.63c0,21,12.49,38,27.91,38s27.91-17,27.91-38-12.5-38-27.91-38S320.18,285.64,320.18,306.63Z" transform="translate(-62.73 -21.43)"/><circle class="cls-8" cx="328.27" cy="285.2" r="22.05"/><circle class="cls-8" cx="293.42" cy="295.69" r="8.07"/><path class="cls-7" d="M213.06,291.21a71.24,71.24,0,0,0,1.21,13.08,60.52,60.52,0,0,0,11.27,26.55,43.37,43.37,0,0,0,6.54,6.89l2.37.26h0c4.13.51,8.61,1.16,13.38,2,4.35.73,8.22,1.42,11.75,2.06,2.24.39,4.3.78,6.24,1.12a35.56,35.56,0,0,0,7.27-4.43c12.09-9.43,20.22-27.2,20.22-47.51,0-30.2-17.94-54.69-40.14-54.69-18.8,0-34.55,17.6-38.9,41.4A69.78,69.78,0,0,0,213.06,291.21Z" transform="translate(-62.73 -21.43)"/><path class="cls-8" d="M213.06,291.21a71.24,71.24,0,0,0,1.21,13.08,57.23,57.23,0,0,0,12.09,26.42,41.28,41.28,0,0,0,8.09,7.28h0c4.13.51,8.61,1.16,13.38,2,4.35.73,8.22,1.42,11.75,2.06a31.27,31.27,0,0,0,10-5.12c9.08-6.76,15.92-18.37,18.63-32.27a67.6,67.6,0,0,0,1-7.4v-.05c.17-2,.26-3.95.26-6,0-28.74-17.13-52.06-38.25-52.06-17.73,0-32.66,16.44-37,38.77A69.78,69.78,0,0,0,213.06,291.21Z" transform="translate(-62.73 -21.43)"/><path class="cls-11" d="M244.69,297.05c0,16.33,9.71,29.56,21.7,29.56s21.71-13.23,21.71-29.56-9.72-29.56-21.71-29.56S244.69,280.72,244.69,297.05Z" transform="translate(-62.73 -21.43)"/><path class="cls-10" d="M254.92,298.3c0,11.68,7,21.15,15.53,21.15S286,310,286,298.3s-7-21.15-15.53-21.15S254.92,286.62,254.92,298.3Z" transform="translate(-62.73 -21.43)"/><path class="cls-8" d="M268.61,299.54a10.48,10.48,0,1,0,10.48-10.48A10.48,10.48,0,0,0,268.61,299.54Z" transform="translate(-62.73 -21.43)"/><path class="cls-8" d="M256,305.52a4.49,4.49,0,1,0,4.49-4.49A4.49,4.49,0,0,0,256,305.52Z" transform="translate(-62.73 -21.43)"/><path class="cls-10" d="M293.37,235.54s-7.43-25-40.15-49.21-54.5-29.85-54.5-29.85L215.67,175l-28.51-6.73S189,187.09,200.79,201c13.08,15.42,54.13,22,76.37,37.69a132.85,132.85,0,0,1,14.61,11.88l-8.06-19.49Z" transform="translate(-62.73 -21.43)"/><path class="cls-10" d="M313.92,252.49s29.22-19.25,59.61-24.55,76.07-8.26,76.07-8.26l-16.37-7.53s6.19-2,14-10.76c6.06-6.83,15.59-29.58,15.59-29.58s-32.72,4.44-69.62,10.22c-51.37,8.05-76.41,38.45-76.41,38.45l10.49-.53S315.35,240.12,313.92,252.49Z" transform="translate(-62.73 -21.43)"/><path class="cls-12" d="M227.31,751.15c.47-7.19,4-44.92,24-73.41,22.2-31.54,122.67-7.87,145.61,13.64S456.44,771,456.44,771l10.71,5.72s34.47-72.42,33.78-199.35,30.81-168.55,47.33-257.92c8-43.16,9.77-95-9.73-137.82,1.38,6.37,22.55,108.65-23.27,186.74C467.92,449,436.81,616.81,376,629.72s-115.36-12.91-146.9,14.33S227.31,751.15,227.31,751.15Z" transform="translate(-62.73 -21.43)"/><path class="cls-5" d="M315.17,526.26s-18.43,31.46-48.05,33.17c-55.94,3.22-70.42-74.8-70.42-74.8s9.82,44.68,72.57,52.21C300.61,540.6,315.17,526.26,315.17,526.26Z" transform="translate(-62.73 -21.43)"/><path class="cls-13" d="M315.17,526.26s-33.63,15.6-74.9,0-46.66-58.63-46.66-58.63,2.16,47.21,42,65.56S315.17,526.26,315.17,526.26Z" transform="translate(-62.73 -21.43)"/><path class="cls-14" d="M298,523.93s-45.9,1.07-71-26.54-22.79-61.13-22.79-61.13-10.06,35.61,14.54,67.49C243.93,536.43,298,523.93,298,523.93Z" transform="translate(-62.73 -21.43)"/><path class="cls-14" d="M202.23,426c-.37,4.59.37,8.39,1.65,8.5s2.62-3.54,3-8.13-.37-8.4-1.65-8.5S202.6,421.43,202.23,426Z" transform="translate(-62.73 -21.43)"/><polygon class="cls-8" points="243.97 352.22 241.32 317.3 221.64 343.52 243.97 352.22"/><polygon class="cls-8" points="132.85 329.27 124.25 305.18 116.41 332.53 132.85 329.27"/><path class="cls-10" d="M396.93,430S334.19,375.84,265,359.34s-88.22-4.3-88.22-4.3l27.61,51.63-13.82-38.31s16-8.3,72.27,2.1C318.3,380.71,396.93,430,396.93,430Z" transform="translate(-62.73 -21.43)"/><path class="cls-15" d="M282.23,220.62a228,228,0,0,0-21.52-23.13c-13.85-12.64-32.27-21.24-32.27-21.24l6.23,9.18L208,179.34a232.39,232.39,0,0,1,39.62,20.53,128.08,128.08,0,0,1,29.58,27.52l-1.61-8.25Z" transform="translate(-62.73 -21.43)"/><path class="cls-15" d="M331.31,212.15s14.83-14.93,44.69-23.31,65.93-10.94,65.93-10.94l-24.74,10.22,30.12-5.38s-15.6,9.87-45.9,16.32-68,24-68,24l7.35-13.56Z" transform="translate(-62.73 -21.43)"/><path class="cls-3" d="M205.1,336.09s7.06-.17,18.81.82c2.49.22,5.25.47,8.17.82l2.37.26h0c4.13.51,8.61,1.16,13.38,2,4.35.73,8.22,1.42,11.75,2.06,2.24.39,4.3.78,6.24,1.12,1.29.21,2.5.43,3.61.64,10.2,1.9,14.81,2.89,14.81,2.89a52.11,52.11,0,0,0-9-6.71c-.65-.39-1.33-.82-2.11-1.25-1.07-.6-2.24-1.21-3.48-1.81A72.33,72.33,0,0,0,250,330.58a76.76,76.76,0,0,0-23.66.13l-.82.13c-2.19.35-4.26.73-6.19,1.16A98.94,98.94,0,0,0,205.1,336.09Z" transform="translate(-62.73 -21.43)"/><path class="cls-16" d="M489.72,379.6c-2.36,16.52,1.09,30.69,7.7,31.63s13.9-11.68,16.26-28.2-1.08-30.69-7.7-31.64S492.09,363.07,489.72,379.6Z" transform="translate(-62.73 -21.43)"/><path class="cls-17" d="M487.05,379.22c-2.36,16.52,1.08,30.69,7.7,31.63s13.9-11.68,16.26-28.21S509.93,352,503.31,351,489.41,362.69,487.05,379.22Z" transform="translate(-62.73 -21.43)"/><path class="cls-16" d="M470.7,518.74c-1.57,11,.71,20.34,5.1,21S485,532,486.58,521s-.72-20.35-5.11-21S472.26,507.78,470.7,518.74Z" transform="translate(-62.73 -21.43)"/><path class="cls-17" d="M468.59,518.62c-1.57,11,.72,20.35,5.1,21s9.21-7.74,10.78-18.7-.72-20.34-5.1-21S470.15,507.67,468.59,518.62Z" transform="translate(-62.73 -21.43)"/><path class="cls-16" d="M474.24,589c-1.57,11,.72,20.35,5.1,21s9.22-7.74,10.78-18.7-.71-20.34-5.1-21S475.81,578.08,474.24,589Z" transform="translate(-62.73 -21.43)"/><path class="cls-17" d="M472.17,589c-1.56,11,.72,20.35,5.11,21s9.21-7.74,10.78-18.7-.72-20.34-5.11-21S473.74,578.08,472.17,589Z" transform="translate(-62.73 -21.43)"/><path class="cls-16" d="M452.33,558.76c-1.06,7.4.49,13.75,3.45,14.17s6.22-5.23,7.28-12.64-.48-13.75-3.45-14.17S453.39,551.35,452.33,558.76Z" transform="translate(-62.73 -21.43)"/><path class="cls-17" d="M450.93,558.76c-1.06,7.4.49,13.75,3.45,14.17s6.23-5.23,7.29-12.64-.49-13.75-3.45-14.17S452,551.35,450.93,558.76Z" transform="translate(-62.73 -21.43)"/><path class="cls-16" d="M528.32,235.29c.92,7.42,4.08,13.14,7.06,12.77s4.62-6.69,3.69-14.11S535,220.81,532,221.18,527.39,227.87,528.32,235.29Z" transform="translate(-62.73 -21.43)"/><path class="cls-17" d="M527,235.66c.93,7.42,4.09,13.14,7.06,12.76s4.63-6.68,3.7-14.11-4.09-13.13-7.06-12.76S526,228.24,527,235.66Z" transform="translate(-62.73 -21.43)"/><path class="cls-16" d="M447.59,450.42c-3.52,24.61,1.61,45.7,11.46,47.11s20.7-17.4,24.22-42-1.61-45.7-11.47-47.11S451.11,425.81,447.59,450.42Z" transform="translate(-62.73 -21.43)"/><path class="cls-17" d="M443.5,449.83C440,474.44,445.12,495.54,455,497s20.7-17.4,24.22-42-1.62-45.71-11.47-47.12S447,425.22,443.5,449.83Z" transform="translate(-62.73 -21.43)"/><path class="cls-16" d="M513.49,297.85C511,315.17,514.63,330,521.56,331s14.56-12.24,17-29.56-1.14-32.16-8.07-33.16S516,280.54,513.49,297.85Z" transform="translate(-62.73 -21.43)"/><path class="cls-17" d="M510.62,297.74c-2.48,17.32,1.14,32.16,8.07,33.15s14.56-12.24,17-29.56-1.14-32.16-8.07-33.15S513.1,280.42,510.62,297.74Z" transform="translate(-62.73 -21.43)"/><path class="cls-18" d="M195.46,148.23c23.84,5.2,81.76,15.45,145,8.26,82.79-9.42,125-41.74,125-41.74L427.69,101.2A268.79,268.79,0,0,0,397.14,97c-4.17-.34-8.43-.64-12.82-.82C279.46,91.52,207.81,133.3,195.46,148.23Z" transform="translate(-62.73 -21.43)"/><path class="cls-10" d="M489.76,125.06S466.07,79,419.52,51.69C359,16.19,320.18,21.74,320.18,21.74l45.15,23.11S355,42,334.53,40.3C304.68,37.88,294.46,43,294.46,43l68,22.59s-8.81-1.73-31.19-.54c-21.25,1.13-28.69,4.4-28.69,4.4l49.79,26.7S449.2,101.63,489.76,125.06Z" transform="translate(-62.73 -21.43)"/></svg>