<svg id="Layer_1" data-name="Layer 1" xmlns="http://www.w3.org/2000/svg" viewBox="0 0 408.93 994"><defs><style>.cls-1{fill:#9b9b9b;}.cls-2{fill:#3ecea8;}.cls-3{fill:#24b58c;}.cls-4{fill:#5de2bc;}</style></defs><path class="cls-1" d="M190.05,1010l-9.2-1.46c8.72-54.72-6.22-91-18.22-120.23-9.63-23.44-17.95-43.67-10.51-65.42,7.08-20.68,31.67-35.77,53.37-49.08,19.14-11.75,37.22-22.86,38-34.09.38-5.2-3.22-11-10.68-17.21-8.24-6.86-17.69-14-26.8-20.82-32.85-24.71-63.88-48.06-61.54-73.1,1.31-13.74,12.51-25.61,34.25-36.3C252.51,556,242.43,474.45,242,471l9.22-1.26c.13.91,11.54,91.65-68.33,130.91-18.33,9-28.1,18.72-29.06,28.81-1.87,19.85,28.49,42.71,57.85,64.79,9.21,6.93,18.74,14.09,27.17,21.11,10,8.36,14.62,16.56,14,25-1.16,16-20.29,27.74-42.46,41.35C190,794.25,166.94,808.4,161,825.9c-6.32,18.44,1,36.28,10.3,58.86C183.69,915,199.18,952.7,190.05,1010Z" transform="translate(-19.38 -16)"/><path class="cls-2" d="M226.2,449.16s15,3.3,7.19,14.25-36.25,23-20.68,30.13,63.74,1.21,74.22-15.64c2.66-5.88-12.57-8-25.33-12.2s-7.82-17.06-.93-21.55C263,442.66,226.2,449.16,226.2,449.16Z" transform="translate(-19.38 -16)"/><path class="cls-3" d="M261.6,465.7c-12.79-4.16-7.82-17.06-.93-21.55,2.31-1.49-34.47,5-34.47,5s9.94,2.19,9.42,8.92c5.79,11.71,40,7.06,26.65,26.89-6.08,6.77-14,9.22-21.67,11.16,18.77-1.52,39.83-7.75,46.33-18.23C289.59,472,274.36,469.85,261.6,465.7Z" transform="translate(-19.38 -16)"/><path class="cls-2" d="M427.43,201.93c10.24,112.44-70.08,239.71-182.53,249.93S30.46,351.43,20.23,239,92.85,27.09,205.31,16.85,417.19,89.49,427.43,201.93Z" transform="translate(-19.38 -16)"/><path class="cls-3" d="M229.55,16.13c86,15.82,154.75,88,163.16,180.46,10.1,111-68,236.5-177.59,246.47a157.1,157.1,0,0,1-48.57-3.27c24.75,9.92,51.23,14.54,78.35,12.07,112.45-10.22,192.77-137.49,182.53-249.93C417.94,97.65,331.72,18.88,229.55,16.13Z" transform="translate(-19.38 -16)"/><path class="cls-4" d="M202.34,106.82c2.18,23.92-22.33,45.72-54.75,48.66S87.15,141.42,85,117.5,107.3,71.78,139.7,68.83,200.16,82.89,202.34,106.82Z" transform="translate(-19.38 -16)"/><path class="cls-1" d="M251.1,465.07l-.7.05c-4.75.32-20.34,1-21.83-4.34-.88-3.13,2.82-5.06,4.05-5.69l.62-.32.69.07a84.24,84.24,0,0,0,14.44.12,34.74,34.74,0,0,0,7.12-1.3l.64-.13c2.25-.2,4.42,1.89,4.65,4.47a5.38,5.38,0,0,1-2.35,4.81A14.83,14.83,0,0,1,251.1,465.07ZM234,459.63c2.63.77,8.71,1.35,16,.84l.6-.05c4.13-.37,5.33-1.5,5.46-1.89a.72.72,0,0,0,0-.21,38.33,38.33,0,0,1-7.33,1.29,88.42,88.42,0,0,1-14.62-.07Z" transform="translate(-19.38 -16)"/></svg>