<svg id="Layer_1" data-name="Layer 1" xmlns="http://www.w3.org/2000/svg" viewBox="0 0 410.36 997"><defs><style>.cls-1{fill:#9b9b9b;}.cls-2{fill:#ff395a;}.cls-3{fill:#f22552;}.cls-4{fill:#ff5a7e;}</style></defs><path class="cls-1" d="M396,1009.09c-11.45-17.51-28-30.29-43.21-42.07-24.78-19.16-44.36-34.29-36.09-62.52,4.77-16.24,12.84-31.87,20.63-47,21.26-41.21,41.34-80.12-16.52-113.85-19.92-11.6-38.76-19.49-55.39-26.45-25.47-10.66-43.88-18.37-48.16-32-3.25-10.34,1.37-24.86,14.58-45.7,47.83-75.56,27.26-159,26.36-162.48l-9.07,2.31c.23.83,20.51,83-25.2,155.17-15,23.65-19.79,40.17-15.58,53.51,5.58,17.77,25.67,26.18,53.47,37.8,16.36,6.85,34.91,14.61,54.27,25.91,50.2,29.26,33.75,61.12,12.93,101.48-8,15.51-16.27,31.54-21.29,48.65-10.07,34.35,13.93,52.89,39.33,72.53,14.78,11.42,29.85,23.1,40.33,38.59A19.73,19.73,0,0,1,396,1009.09Z" transform="translate(-25.14 -16)"/><path class="cls-2" d="M232.68,450.67s15,3.3,7.21,14.3S203.53,488,219.14,495.19s64,1.22,74.5-15.68c2.66-5.91-12.63-8.09-25.43-12.26s-7.85-17.11-.93-21.6C269.6,444.15,232.68,450.67,232.68,450.67Z" transform="translate(-25.14 -16)"/><path class="cls-3" d="M268.21,467.25c-12.83-4.17-7.85-17.11-.93-21.6,2.32-1.5-34.6,5-34.6,5s10,2.19,9.46,8.95c5.8,11.75,40.16,7.08,26.74,27-6.09,6.8-14.08,9.27-21.73,11.21,18.82-1.53,40-7.79,46.49-18.29C296.3,473.6,281,471.42,268.21,467.25Z" transform="translate(-25.14 -16)"/><path class="cls-2" d="M434.62,202.57C444.89,315.4,364.29,443.1,251.45,453.38S36.27,352.59,26,239.76,98.88,27.12,211.72,16.86,424.35,89.73,434.62,202.57Z" transform="translate(-25.14 -16)"/><path class="cls-3" d="M236.06,16.11C322.39,32,391.34,104.45,399.79,197.22c10.13,111.37-68.27,237.31-178.23,247.32a157.93,157.93,0,0,1-48.74-3.27c24.85,10,51.42,14.58,78.63,12.11,112.84-10.28,193.44-138,183.17-250.81C425.09,97.92,338.57,18.87,236.06,16.11Z" transform="translate(-25.14 -16)"/><path class="cls-4" d="M208.75,107.12c2.18,24-22.42,45.88-54.95,48.84S93.14,141.85,91,117.84,113.37,72,145.89,69,206.56,83.1,208.75,107.12Z" transform="translate(-25.14 -16)"/><path class="cls-1" d="M257.09,466.23l-.71,0c-4.76.32-20.41,1-21.9-4.35-.89-3.16,2.83-5.08,4.06-5.72l.63-.31.69.06a85.5,85.5,0,0,0,14.5.13,33.59,33.59,0,0,0,7.14-1.31l.63-.12c2.26-.21,4.44,1.88,4.68,4.47a5.42,5.42,0,0,1-2.37,4.83A14.71,14.71,0,0,1,257.09,466.23ZM240,460.76c2.64.78,8.74,1.36,16.09.86l.61-.05c4.16-.38,5.35-1.5,5.46-1.9a.26.26,0,0,0,0-.21,38.1,38.1,0,0,1-7.34,1.28,87.05,87.05,0,0,1-14.67-.06Z" transform="translate(-25.14 -16)"/></svg>