<svg id="Layer_1" data-name="Layer 1" xmlns="http://www.w3.org/2000/svg" viewBox="0 0 385.41 988"><defs><style>.cls-1{fill:#9b9b9b;}.cls-2{fill:#ffcf03;}.cls-3{fill:#ffbe06;}.cls-4{fill:#fce06b;}</style></defs><path class="cls-1" d="M396.68,1009C386,938.72,333.84,923.52,283.39,908.83c-35.63-10.38-72.46-21.1-92.71-51.37-27.53-41.11.14-65.41,22.36-84.94,19.21-16.88,35.8-31.46,22.77-54C224.62,699.2,203.38,685.8,184.64,674c-21.14-13.35-39.43-24.87-40.91-42.31-1-12.35,6.52-25.37,23.84-41,65.93-59.37,59.76-156.26,59.69-157.24l8.45-.6c.29,4.13,6.49,102-62.46,164.12-15,13.5-21.89,24.61-21.08,34,1.12,13.24,17.74,23.72,37,35.86,19.57,12.34,41.75,26.33,54,47.47,16.51,28.53-4.34,46.86-24.51,64.58-22.78,20-44.3,38.93-20.91,73.88,18.54,27.71,52.3,37.54,88,47.94,53,15.44,107.83,31.4,119.31,107Z" transform="translate(-19.64 -21)"/><path class="cls-2" d="M207.48,414.41s13.63,3,6.53,12.94-32.91,20.89-18.78,27.35,57.9,1.11,67.42-14.19c2.42-5.34-11.42-7.32-23-11.09s-7.1-15.48-.84-19.55C240.89,408.51,207.48,414.41,207.48,414.41Z" transform="translate(-19.64 -21)"/><path class="cls-3" d="M239.64,429.42c-11.61-3.77-7.1-15.48-.84-19.55,2.09-1.36-31.32,4.54-31.32,4.54s9,2,8.56,8.1c5.25,10.62,36.35,6.41,24.21,24.42-5.52,6.15-12.77,8.37-19.67,10.14,17-1.39,36.17-7.05,42.07-16.56C265.07,435.17,251.23,433.19,239.64,429.42Z" transform="translate(-19.64 -21)"/><path class="cls-2" d="M390.25,189.86c9.29,102.13-63.66,217.71-165.79,227s-194.75-91.21-204-193.34,66-192.45,168.09-201.74A185.66,185.66,0,0,1,390.25,189.86Z" transform="translate(-19.64 -21)"/><path class="cls-3" d="M210.54,21.12C288.67,35.48,351.08,101.06,358.72,185c9.17,100.81-61.79,214.8-161.29,223.86a142.49,142.49,0,0,1-44.13-3c22.49,9,46.54,13.2,71.16,11,102.13-9.29,175.08-124.87,165.79-227C381.63,95.16,303.32,23.61,210.54,21.12Z" transform="translate(-19.64 -21)"/><path class="cls-4" d="M185.82,103.48c2,21.73-20.29,41.52-49.73,44.2s-54.9-12.77-56.88-34.5S99.49,71.65,128.93,69,183.84,81.74,185.82,103.48Z" transform="translate(-19.64 -21)"/><path class="cls-1" d="M230.72,426.42l-.63.05c-4.3.31-18.48.9-19.83-3.94-.8-2.85,2.57-4.6,3.67-5.17l.57-.3.63.08a77,77,0,0,0,13.12.12,31.24,31.24,0,0,0,6.46-1.2l.59-.1c2-.19,4,1.71,4.21,4a4.89,4.89,0,0,1-2.12,4.38A13.62,13.62,0,0,1,230.72,426.42Zm-15.48-4.94c2.38.7,7.9,1.22,14.56.77l.53,0c3.77-.35,4.87-1.37,5-1.74a.28.28,0,0,0,0-.18,35.42,35.42,0,0,1-6.65,1.16,78.69,78.69,0,0,1-13.28,0Z" transform="translate(-19.64 -21)"/></svg>