<?xml version="1.0" encoding="utf-8"?>
<!-- Generator: Adobe Illustrator 24.1.2, SVG Export Plug-In . SVG Version: 6.00 Build 0)  -->
<svg version="1.1" id="Layer_1" xmlns="http://www.w3.org/2000/svg" xmlns:xlink="http://www.w3.org/1999/xlink" x="0px" y="0px"
	 viewBox="0 0 3840 2160" style="enable-background:new 0 0 3840 2160;" xml:space="preserve">
<style type="text/css">
	.st0{fill:url(#SVGID_1_);}
	.st1{fill:#36A8C1;}
	.st2{opacity:0.3;}
	.st3{fill:#1A1A1A;}
	.st4{opacity:0.6;fill:url(#SVGID_2_);}
	.st5{opacity:0.6;fill:url(#SVGID_3_);}
	.st6{opacity:0.6;fill:#151418;}
	.st7{opacity:0.6;fill:url(#SVGID_4_);}
	.st8{opacity:0.6;fill:url(#SVGID_5_);}
	.st9{opacity:0.6;fill:url(#SVGID_6_);}
	.st10{opacity:0.6;fill:url(#SVGID_7_);}
	.st11{fill:url(#SVGID_8_);}
	.st12{opacity:0.3;fill:url(#SVGID_9_);}
	.st13{fill:url(#SVGID_10_);}
	.st14{fill:url(#SVGID_11_);}
	.st15{fill:url(#SVGID_12_);}
	.st16{fill:url(#SVGID_13_);}
	.st17{fill:url(#SVGID_14_);}
	.st18{fill:url(#SVGID_15_);}
	.st19{fill:none;stroke:#1A1A1A;stroke-width:0.324;stroke-miterlimit:10;}
	.st20{fill:url(#SVGID_16_);}
	.st21{fill:url(#SVGID_17_);}
	.st22{fill:url(#SVGID_18_);stroke:url(#SVGID_19_);stroke-width:0.494;stroke-miterlimit:10;}
	.st23{fill:#1B1A1C;}
	.st24{fill:url(#SVGID_20_);}
	.st25{fill:url(#SVGID_21_);}
	.st26{fill:url(#SVGID_22_);}
	.st27{fill:url(#SVGID_23_);}
	.st28{fill:url(#SVGID_24_);}
	.st29{fill:url(#SVGID_25_);}
	.st30{fill:url(#SVGID_26_);}
	.st31{fill:url(#SVGID_27_);stroke:url(#SVGID_28_);stroke-width:0.494;stroke-miterlimit:10;}
	.st32{fill:url(#SVGID_29_);}
	.st33{fill:url(#SVGID_30_);}
	.st34{fill:url(#SVGID_31_);}
	.st35{fill:url(#SVGID_32_);}
	.st36{fill:url(#SVGID_33_);}
	.st37{fill:url(#SVGID_34_);}
	.st38{filter:url(#Adobe_OpacityMaskFilter);}
	.st39{fill:url(#SVGID_36_);}
	.st40{mask:url(#SVGID_35_);fill:url(#SVGID_37_);}
</style>
<g>
	<g>
		<path d="M1423,657.6c0,0,5.4-9.9-16.3-10.9h-47.5l-10,3.2l-2.3,18.8C1347,668.7,1383.2,672.1,1423,657.6z"/>
		<polygon points="1361,646.8 1257.4,513.7 1254.7,516.9 1349.3,649.9 		"/>
		<path d="M3089.5,1428.8h-519c0,0-37.7-253.2,225.7-309.1c0,0,294.2-30.5,307.6,280.6v28.6H3089.5z"/>
		<path d="M843.6,1400.2l517.4,10c0,0,24.4-283-243.5-304.7C1117.6,1105.5,843.6,1055.4,843.6,1400.2z"/>
		
			<linearGradient id="SVGID_1_" gradientUnits="userSpaceOnUse" x1="2107.2947" y1="441.7665" x2="2107.2947" y2="1747.5016" gradientTransform="matrix(-1 0 0 1 4059.5469 0)">
			<stop  offset="6.511080e-02" style="stop-color:#36A8C1"/>
			<stop  offset="0.1015" style="stop-color:#2B9DB9"/>
			<stop  offset="0.2242" style="stop-color:#0C7DA1"/>
			<stop  offset="0.2921" style="stop-color:#007198"/>
			<stop  offset="0.2938" style="stop-color:#007198"/>
			<stop  offset="0.3798" style="stop-color:#007198"/>
			<stop  offset="0.5212" style="stop-color:#005E7E"/>
			<stop  offset="0.5728" style="stop-color:#03526D"/>
			<stop  offset="0.6706" style="stop-color:#074053"/>
			<stop  offset="0.7714" style="stop-color:#0A3341"/>
			<stop  offset="0.8762" style="stop-color:#0C2C36"/>
			<stop  offset="0.9909" style="stop-color:#0D2932"/>
		</linearGradient>
		<path class="st0" d="M583,1317.9c55.5,43.4,269.1,96.5,269.1,96.5s-29-305.3,251-298.1c280,7.2,251.6,326.4,251.6,326.4
			l1221.9,10.9c-8.1-243.5,172-372.9,357.5-304.1c182.6,67.7,155.5,289.2,153.1,306.6c-0.1,0.7-0.1,1.1-0.1,1.1
			c99.6,17.2,207.3-17.2,207.3-17.2l3.6-28.1c29-9.1,45.5-29.9,45.5-29.9v-13.6l-8.4-6.3l6.3-40.7c12.7-114.5-36.5-195.6-53.8-220.3
			c-3.7-5.2-5.9-7.8-5.9-7.8c-19-59.1-95.7-76-95.7-76c-156.9-54.3-502-107.4-543-108.6c-12.7-0.4-23.9-1.3-33.5-2.5
			c-21.4-2.5-34.1-6-34.1-6l-261.9-131.6c-26.2-14.3-52.5-27-78.8-38.4c-237.5-102.9-465.5-93.1-465.5-93.1
			c-173.8-7.2-362,10.9-500.8,50.7c-54.8,15.7-118.7,41.6-178.2,67.5c-44.2,19.3-86,38.6-119.5,53.8c0,0-0.1,0-0.2,0.1
			c-35.6,16.1-62,27.6-72.5,29.4c-33.8,6-202.7,19.3-202.7,19.3c-30.1,1.8-44,9-50.4,16c0,0,0,0,0,0c-6.7,7.2-5.1,14.2-5.1,14.2
			l-3.6,44.5v0.1c-11.3,31.4-16.4,60-18.5,82.8c-2.9,31.9,0,52.7,0.3,54.6c0,0,0,0,0,0c0,0.1,0,0.1,0,0.1l-56.9,62.7v0.7l0.1,109.1
			C558.9,1303.4,583,1317.9,583,1317.9z"/>
		<path class="st1" d="M2536.7,963.2c0,0,11.8,9.1,10.9,15.4c-0.9,6.3-10.9,8.2-42.5,4.5c0,0-151.1-21.7-297.8-32.6
			c-146.6-10.9-1062.6-56.1-1176.6-59.7c0,0,226.6-197,678.8-213.6c143.7-5.3,325.8-3.2,563,117.7
			C2272.5,794.8,2496.9,925.2,2536.7,963.2z"/>
		<g class="st2">
			<image style="overflow:visible;" width="1217" height="193" xlink:href="9B55687D.png"  transform="matrix(1 0 0 1 1054 599)">
			</image>
		</g>
		<path class="st3" d="M2132.2,713.8c229.5,94.7,407.3,211.4,433.2,228.7c1,0,2.1,0.1,3.1,0.1c3.3,0.2,6.7,0.3,10,0.5
			c2.4,0.1,4.8,0.2,7.2,0.3c5.2,0.2,10.4,0.4,15.5,0.6h0.2c5.3,0.2,10.5,0.3,15.6,0.4c22,0.5,40.5,0.2,49.1-1.3
			c29.9-5.4,59.3-27.2-73.3-32.6l-1.9-1.9c0,0,0,0,0,0l-6.2-6.2c-6.1-1.2-9.3-2.1-9.3-2.1l-261.9-131.6
			c-56.9-31.1-114.7-54.9-170.3-73.1c-1.3,1.8-2.6,3.7-4,5.8c-0.8,1.3-1.7,2.6-2.5,4.1c-0.2,0.3-0.4,0.7-0.6,1
			c-0.3,0.6-0.7,1.2-1.1,1.9C2134,710.2,2133.1,711.9,2132.2,713.8z"/>
		
			<linearGradient id="SVGID_2_" gradientUnits="userSpaceOnUse" x1="1490.2679" y1="906.7201" x2="1836.0101" y2="716.6522" gradientTransform="matrix(-1 0 0 1 4059.5469 0)">
			<stop  offset="0.3051" style="stop-color:#3E3D3F"/>
			<stop  offset="0.4624" style="stop-color:#363537"/>
			<stop  offset="0.71" style="stop-color:#201F20"/>
			<stop  offset="0.9823" style="stop-color:#000000"/>
		</linearGradient>
		<path class="st4" d="M2132.2,713.8c229.5,94.7,407.3,211.4,433.2,228.7c1,0,2.1,0.1,3.1,0.1c3.3,0.2,6.6,0.3,10,0.5
			c2.4,0.1,4.8,0.2,7.2,0.3c5.2,0.2,10.4,0.4,15.5,0.6h0.2c5.3,0.2,10.5,0.3,15.6,0.4c22,0.5,40.5,0.2,49.1-1.3
			c29.9-5.4,59.3-27.2-73.3-32.6l-1.9-1.9c0,0,0,0,0,0l-6.2-6.2c-6.1-1.2-9.3-2.1-9.3-2.1l-261.9-131.6
			c-56.9-31.1-114.7-54.9-170.3-73.1c-1.3,1.8-2.6,3.7-4,5.8c-0.8,1.3-1.7,2.6-2.5,4.1c-0.2,0.3-0.4,0.7-0.6,1
			c-0.3,0.6-0.7,1.2-1.1,1.9C2134,710.2,2133.1,711.9,2132.2,713.8z"/>
		<path class="st3" d="M1030.7,887.1c25.5,0.8,90.8,3.7,178.7,7.8c0.9,0,1.8,0.1,2.7,0.1c163.3,7.6,402.9,19.4,608.3,30.1
			c0.9,0,1.8,0.1,2.6,0.1c178.9,9.3,331.5,17.7,384.3,21.6c113.3,8.4,229.4,23.3,276.2,29.6c1,0.1,1.9,0.3,2.8,0.4
			c12.1,1.6,18.8,2.6,18.8,2.6c31.7,3.6,41.6,1.8,42.5-4.5c0.9-6.3-10.9-15.4-10.9-15.4c-12-11.4-40.6-31.2-74.8-53.3l-3.4-2.2
			c-79.3-50.9-186-112.9-186-112.9c-198.1-101-357.9-119-488.9-119.2h-2.6c-24.9,0-48.7,0.7-71.5,1.5
			c-236.5,8.7-411.3,66.7-524.3,120.1c-0.8,0.4-1.6,0.8-2.4,1.1C1081.4,842.9,1030.7,887.1,1030.7,887.1z"/>
		
			<linearGradient id="SVGID_3_" gradientUnits="userSpaceOnUse" x1="2272.5627" y1="985.1301" x2="2265.322" y2="804.1155" gradientTransform="matrix(-1 0 0 1 4059.5469 0)">
			<stop  offset="0" style="stop-color:#FCFCFA"/>
			<stop  offset="1" style="stop-color:#FCFCFA;stop-opacity:0"/>
		</linearGradient>
		<path class="st5" d="M1030.7,887.1c25.5,0.8,90.8,3.7,178.7,7.8c0.9,0,1.8,0.1,2.7,0.1c163.3,7.6,402.9,19.4,608.3,30.1
			c0.9,0,1.8,0.1,2.6,0.1c178.9,9.3,331.5,17.7,384.3,21.6c113.3,8.4,229.4,23.3,276.2,29.6c1,0.1,1.9,0.3,2.8,0.4
			c12.1,1.6,18.8,2.6,18.8,2.6c31.7,3.6,41.6,1.8,42.5-4.5c0.9-6.3-10.9-15.4-10.9-15.4c-12-11.4-40.6-31.2-74.8-53.3l-3.4-2.2
			c-79.3-50.9-186-112.9-186-112.9c-198.1-101-357.9-119-488.9-119.2h-2.6c-24.9,0-48.7,0.7-71.5,1.5
			c-236.5,8.7-411.3,66.7-524.3,120.1c-0.8,0.4-1.6,0.8-2.4,1.1C1081.4,842.9,1030.7,887.1,1030.7,887.1z"/>
		<path class="st6" d="M2340.3,884.3c0,0-238.9-171.1-479.7-162.9l5.4,30.8c0,0,28.1,26.6,19.9,74.4l15.4,65l431.7,25.3
			C2333.1,916.9,2366.6,913.3,2340.3,884.3z"/>
		<path class="st6" d="M1457.7,755l19.2,119.9l275.1,9.5l-14.5-143.9c-5.4-26.2-28.1-19.8-38.9-19.3
			C1608.5,725.3,1522.9,739.6,1457.7,755z"/>
		<path class="st6" d="M1379,777.1l8.3,94.7l75.9,2.6l-18.1-116.4C1419,764.5,1396.5,771.1,1379,777.1z"/>
		<path class="st6" d="M1366,853.2l-4.5-69.6c-13.2,5.2-21.5,9.8-24,13C1329.4,806.9,1350,834.5,1366,853.2z"/>
		<path class="st6" d="M2340.3,884.3c0,0-238.9-171.1-479.7-162.9l5.4,30.8c0,0,28.1,26.6,19.9,74.4l15.4,65l431.7,25.3
			C2333.1,916.9,2366.6,913.3,2340.3,884.3z"/>
		<path class="st6" d="M1457.7,755l19.2,119.9l275.1,9.5l-14.5-143.9c-5.4-26.2-28.1-19.8-38.9-19.3
			C1608.5,725.3,1522.9,739.6,1457.7,755z"/>
		<path class="st6" d="M1379,777.1l8.3,94.7l75.9,2.6l-18.1-116.4C1419,764.5,1396.5,771.1,1379,777.1z"/>
		<path class="st6" d="M1366,853.2l-4.5-69.6c-13.2,5.2-21.5,9.8-24,13C1329.4,806.9,1350,834.5,1366,853.2z"/>
		
			<linearGradient id="SVGID_4_" gradientUnits="userSpaceOnUse" x1="1954.0387" y1="901.5397" x2="1954.0387" y2="791.9691" gradientTransform="matrix(-1 0 0 1 4059.5469 0)">
			<stop  offset="6.140140e-02" style="stop-color:#3E3D3F"/>
			<stop  offset="0.1048" style="stop-color:#3A393B"/>
			<stop  offset="0.4683" style="stop-color:#1A1A1B"/>
			<stop  offset="0.7737" style="stop-color:#070707"/>
			<stop  offset="0.9823" style="stop-color:#000000"/>
		</linearGradient>
		<path class="st7" d="M2340.3,884.3c0,0-238.9-171.1-479.7-162.9l5.4,30.8c0,0,28.1,26.6,19.9,74.4l15.4,65l431.7,25.3
			C2333.1,916.9,2366.6,913.3,2340.3,884.3z"/>
		
			<linearGradient id="SVGID_5_" gradientUnits="userSpaceOnUse" x1="2454.6833" y1="887.0582" x2="2454.6833" y2="778.4503" gradientTransform="matrix(-1 0 0 1 4059.5469 0)">
			<stop  offset="6.140140e-02" style="stop-color:#3E3D3F"/>
			<stop  offset="0.1048" style="stop-color:#3A393B"/>
			<stop  offset="0.4683" style="stop-color:#1A1A1B"/>
			<stop  offset="0.7737" style="stop-color:#070707"/>
			<stop  offset="0.9823" style="stop-color:#000000"/>
		</linearGradient>
		<path class="st8" d="M1457.7,755l19.2,119.9l275.1,9.5l-14.5-143.9c-5.4-26.2-28.1-19.8-38.9-19.3
			C1608.5,725.3,1522.9,739.6,1457.7,755z"/>
		
			<linearGradient id="SVGID_6_" gradientUnits="userSpaceOnUse" x1="2638.4268" y1="892.4905" x2="2638.4268" y2="811.0118" gradientTransform="matrix(-1 0 0 1 4059.5469 0)">
			<stop  offset="6.140140e-02" style="stop-color:#3E3D3F"/>
			<stop  offset="0.1048" style="stop-color:#3A393B"/>
			<stop  offset="0.4683" style="stop-color:#1A1A1B"/>
			<stop  offset="0.7737" style="stop-color:#070707"/>
			<stop  offset="0.9823" style="stop-color:#000000"/>
		</linearGradient>
		<path class="st9" d="M1379,777.1l8.3,94.7l75.9,2.6l-18.1-116.4C1419,764.5,1396.5,771.1,1379,777.1z"/>
		
			<linearGradient id="SVGID_7_" gradientUnits="userSpaceOnUse" x1="2708.7219" y1="852.6614" x2="2708.7219" y2="781.981" gradientTransform="matrix(-1 0 0 1 4059.5469 0)">
			<stop  offset="6.140140e-02" style="stop-color:#3E3D3F"/>
			<stop  offset="0.1048" style="stop-color:#3A393B"/>
			<stop  offset="0.4683" style="stop-color:#1A1A1B"/>
			<stop  offset="0.7737" style="stop-color:#070707"/>
			<stop  offset="0.9823" style="stop-color:#000000"/>
		</linearGradient>
		<path class="st10" d="M1366,853.2l-4.5-69.6c-13.2,5.2-21.5,9.8-24,13C1329.4,806.9,1350,834.5,1366,853.2z"/>
		
			<radialGradient id="SVGID_8_" cx="1651.621" cy="919.3265" r="65.5622" gradientTransform="matrix(-1 0 0 1 4059.5469 0)" gradientUnits="userSpaceOnUse">
			<stop  offset="0" style="stop-color:#666666"/>
			<stop  offset="8.016503e-02" style="stop-color:#5D5D5D"/>
			<stop  offset="0.7062" style="stop-color:#1A1A1A"/>
			<stop  offset="1" style="stop-color:#000000"/>
		</radialGradient>
		<path class="st11" d="M2376.8,865.3c-29.6-0.7-44,1.2-53.1,64c-9.1,62.7,80.9,37.4,91.7,32.6
			C2426.3,957.1,2456,867.3,2376.8,865.3z"/>
		<polygon points="1463.2,874.4 1463.3,874.9 1476.7,874.9 		"/>
		<path class="st3" d="M2590.9,908.7c1,9,6.2,22.6,26.1,35.8c22,0.5,40.5,0.2,49.1-1.3c29.9-5.4,59.3-27.2-73.3-32.6L2590.9,908.7z"
			/>
		<g class="st2">
			<image style="overflow:visible;" width="2765" height="532" xlink:href="9B55687F.png"  transform="matrix(1 0 0 1 618 905)">
			</image>
		</g>
		<g class="st2">
			<image style="overflow:visible;" width="751" height="274" xlink:href="9B55687A.png"  transform="matrix(1 0 0 1 2573 870)">
			</image>
		</g>
		
			<linearGradient id="SVGID_9_" gradientUnits="userSpaceOnUse" x1="723.3256" y1="1386.8146" x2="927.2663" y2="1386.8146" gradientTransform="matrix(-1 0 0 1 4059.5469 0)">
			<stop  offset="0.2206" style="stop-color:#FFFEFF"/>
			<stop  offset="0.9823" style="stop-color:#222225;stop-opacity:0"/>
		</linearGradient>
		<path class="st12" d="M3294,1368l42.2,4.8c0,0-57.9,44.1-203.9,30.2C3132.3,1403,3266.2,1382.4,3294,1368z"/>
		
			<radialGradient id="SVGID_10_" cx="790.0665" cy="1352.8796" r="50.2754" gradientTransform="matrix(-1 0 0 1 4059.5469 0)" gradientUnits="userSpaceOnUse">
			<stop  offset="0" style="stop-color:#666666"/>
			<stop  offset="0.2699" style="stop-color:#414141"/>
			<stop  offset="0.5815" style="stop-color:#1E1E1E"/>
			<stop  offset="0.8361" style="stop-color:#080808"/>
			<stop  offset="1" style="stop-color:#000000"/>
		</radialGradient>
		<path class="st13" d="M3196.2,1392.1c21.8-1.3,39.7-4.3,54-7.8c29.9-7.2,43.8-16.4,43.8-16.4c7.8-13.3,14.5-47.6,14.5-47.6
			c1.8-8.5-10.3-9.1-10.3-9.1s-9.2,0-21.6,0h-29.1c-23.5,0-28.3,9.1-28.3,9.1s-12.7,37.4-22.9,54.3
			C3186,1391.5,3196.2,1392.1,3196.2,1392.1z"/>
		
			<linearGradient id="SVGID_11_" gradientUnits="userSpaceOnUse" x1="864.5635" y1="1277.392" x2="868.1837" y2="1503.6433" gradientTransform="matrix(-1 0 0 1 4059.5469 0)">
			<stop  offset="6.511080e-02" style="stop-color:#36A8C1"/>
			<stop  offset="0.1015" style="stop-color:#2B9DB9"/>
			<stop  offset="0.2242" style="stop-color:#0C7DA1"/>
			<stop  offset="0.2921" style="stop-color:#007198"/>
			<stop  offset="0.2945" style="stop-color:#007198"/>
			<stop  offset="0.4132" style="stop-color:#007198"/>
			<stop  offset="0.5576" style="stop-color:#005E7E"/>
			<stop  offset="0.6777" style="stop-color:#044D65"/>
			<stop  offset="0.8825" style="stop-color:#0B3340"/>
			<stop  offset="0.9909" style="stop-color:#0D2932"/>
		</linearGradient>
		<path class="st14" d="M3087,1457.3c99.6,17.2,207.3-17.2,207.3-17.2l3.6-28.1c0,0-83,37.6-210.7,44.2
			C3087.1,1456.9,3087,1457.3,3087,1457.3z"/>
		<g class="st2">
			<image style="overflow:visible;" width="1259" height="206" xlink:href="9B55687B.png"  transform="matrix(1 0 0 1 1325 1225)">
			</image>
		</g>
		<g class="st2">
			<image style="overflow:visible;" width="313" height="148" xlink:href="9B556885.png"  transform="matrix(1 0 0 1 543 1191)">
			</image>
		</g>
		<g class="st2">
			<image style="overflow:visible;" width="190" height="191" xlink:href="9B556887.png"  transform="matrix(1 0 0 1 525 979)">
			</image>
		</g>
		<g class="st2">
			<image style="overflow:visible;" width="399" height="144" xlink:href="9B55688A.png"  transform="matrix(1 0 0 1 608 773)">
			</image>
		</g>
		<g>
			<path class="st1" d="M1930.5,1059.2c-1.1,14.3,14.4,27.3,34.7,28.8c20.3,1.6,37.6-8.8,38.7-23.1c1.1-14.4-14.4-27.3-34.7-28.9
				C1949,1034.5,1931.7,1044.9,1930.5,1059.2z"/>
			<path class="st1" d="M2028.1,1058.2c0,0-100.8-9-134-10.9c0,0-1.8,10.3,0,19.3l134,4.2V1058.2z"/>
		</g>
		<g>
			<path class="st1" d="M1355.1,1017.4c-1.1,14.3,14.4,27.3,34.7,28.8c20.3,1.6,37.6-8.8,38.7-23.1c1.1-14.3-14.4-27.3-34.7-28.9
				C1373.6,992.6,1356.3,1003,1355.1,1017.4z"/>
			<path class="st1" d="M1452.7,1016.3c0,0-100.8-9-134-10.9c0,0-1.8,10.3,0,19.3l134,4.2V1016.3z"/>
		</g>
		<g>
			
				<linearGradient id="SVGID_12_" gradientUnits="userSpaceOnUse" x1="2092.3093" y1="1089.792" x2="2092.3093" y2="1031.8615" gradientTransform="matrix(-1 0 0 1 4059.5469 0)">
				<stop  offset="6.511080e-02" style="stop-color:#36A8C1"/>
				<stop  offset="0.1015" style="stop-color:#2B9DB9"/>
				<stop  offset="0.2242" style="stop-color:#0C7DA1"/>
				<stop  offset="0.2921" style="stop-color:#007198"/>
				<stop  offset="0.2945" style="stop-color:#007198"/>
				<stop  offset="0.4132" style="stop-color:#007198"/>
				<stop  offset="0.5937" style="stop-color:#005E7E"/>
				<stop  offset="0.6739" style="stop-color:#015876"/>
				<stop  offset="0.7987" style="stop-color:#054960"/>
				<stop  offset="0.9515" style="stop-color:#0B303C"/>
				<stop  offset="0.9909" style="stop-color:#0D2932"/>
			</linearGradient>
			<path class="st15" d="M1930.5,1054.6c-1.1,14.3,14.4,27.3,34.7,28.8c20.3,1.6,37.6-8.8,38.7-23.1c1.1-14.3-14.4-27.3-34.7-28.8
				C1949,1029.9,1931.7,1040.3,1930.5,1054.6z"/>
			
				<linearGradient id="SVGID_13_" gradientUnits="userSpaceOnUse" x1="2098.8469" y1="1037.9008" x2="2098.8469" y2="1068.2844" gradientTransform="matrix(-1 0 0 1 4059.5469 0)">
				<stop  offset="6.511080e-02" style="stop-color:#36A8C1"/>
				<stop  offset="0.1015" style="stop-color:#2B9DB9"/>
				<stop  offset="0.2242" style="stop-color:#0C7DA1"/>
				<stop  offset="0.2921" style="stop-color:#007198"/>
				<stop  offset="0.2945" style="stop-color:#007198"/>
				<stop  offset="0.4132" style="stop-color:#007198"/>
				<stop  offset="0.5937" style="stop-color:#005E7E"/>
				<stop  offset="0.6739" style="stop-color:#015876"/>
				<stop  offset="0.7987" style="stop-color:#054960"/>
				<stop  offset="0.9515" style="stop-color:#0B303C"/>
				<stop  offset="0.9909" style="stop-color:#0D2932"/>
			</linearGradient>
			<path class="st16" d="M2028.1,1053.6c0,0-100.8-9-134-10.9c0,0-1.8,10.3,0,19.3l134,4.2V1053.6z"/>
		</g>
		<g>
			
				<linearGradient id="SVGID_14_" gradientUnits="userSpaceOnUse" x1="2667.7061" y1="1063.2388" x2="2667.7061" y2="994.4489" gradientTransform="matrix(-1 0 0 1 4059.5469 0)">
				<stop  offset="6.511080e-02" style="stop-color:#36A8C1"/>
				<stop  offset="0.1015" style="stop-color:#2B9DB9"/>
				<stop  offset="0.2242" style="stop-color:#0C7DA1"/>
				<stop  offset="0.2921" style="stop-color:#007198"/>
				<stop  offset="0.2945" style="stop-color:#007198"/>
				<stop  offset="0.4132" style="stop-color:#007198"/>
				<stop  offset="0.5937" style="stop-color:#005E7E"/>
				<stop  offset="0.6739" style="stop-color:#015876"/>
				<stop  offset="0.7987" style="stop-color:#054960"/>
				<stop  offset="0.9515" style="stop-color:#0B303C"/>
				<stop  offset="0.9909" style="stop-color:#0D2932"/>
			</linearGradient>
			<path class="st17" d="M1355.1,1013.7c-1.1,14.3,14.4,27.3,34.7,28.8c20.3,1.6,37.6-8.8,38.7-23.1c1.1-14.3-14.4-27.3-34.7-28.8
				C1373.6,989,1356.3,999.4,1355.1,1013.7z"/>
			
				<linearGradient id="SVGID_15_" gradientUnits="userSpaceOnUse" x1="2674.2434" y1="999.295" x2="2674.2434" y2="1022.5068" gradientTransform="matrix(-1 0 0 1 4059.5469 0)">
				<stop  offset="6.511080e-02" style="stop-color:#36A8C1"/>
				<stop  offset="0.1015" style="stop-color:#2B9DB9"/>
				<stop  offset="0.2242" style="stop-color:#0C7DA1"/>
				<stop  offset="0.2921" style="stop-color:#007198"/>
				<stop  offset="0.2945" style="stop-color:#007198"/>
				<stop  offset="0.4132" style="stop-color:#007198"/>
				<stop  offset="0.5937" style="stop-color:#005E7E"/>
				<stop  offset="0.6739" style="stop-color:#015876"/>
				<stop  offset="0.7987" style="stop-color:#054960"/>
				<stop  offset="0.9515" style="stop-color:#0B303C"/>
				<stop  offset="0.9909" style="stop-color:#0D2932"/>
			</linearGradient>
			<path class="st18" d="M1452.7,1012.7c0,0-100.8-9.1-134-10.9c0,0-1.8,10.3,0,19.3l134,4.2V1012.7z"/>
		</g>
		<path class="st19" d="M3038.5,1055.6c0,0-74.5-28-164.4-38.9c-89.9-10.9-182.8-18.6-200.9-35.6c-18.1-16.9-30.2-39.9-30.2-39.9"/>
		<g>
			<g>
				<path class="st1" d="M2501.8,1397.8c-0.5,0.9-1,1.9-1.6,2.8c-0.6,0.9-1.2,1.8-1.9,2.6l-1.1,1.2c-0.3,0.4-0.8,0.8-1.2,1.1
					c-0.8,0.8-1.6,1.5-2.5,2.1c-0.9,0.6-1.8,1.3-2.8,1.7l-1.5,0.7c-0.5,0.3-1,0.4-1.5,0.6c-1,0.3-2,0.8-3.1,0.9l-3.2,0.6h0
					l-133.7-4.1l-133.8-3.6l-267.5-7.2l-267.5-6.2l-133.8-3.5l-66.9-1.5l-16.7-0.4c-5.5,0-11-1.3-16.1-3.4
					c-10.3-4.3-18.4-12.8-23.8-22.5c5.2,9.8,13.2,18.4,23.6,22.9c5.1,2.3,10.7,3.7,16.3,3.7l16.7,0.6l66.9,2.3l133.8,4.1l267.5,7.4
					l267.5,6.1l133.8,3l133.8,2.5h0h0l3.2-0.6c1.1-0.1,2.1-0.7,3.1-1c0.5-0.2,1.1-0.3,1.5-0.6l1.5-0.8c1-0.5,1.9-1.1,2.8-1.7
					c0.9-0.6,1.7-1.3,2.5-2.1c0.4-0.4,0.8-0.7,1.2-1.2l1-1.3c0.7-0.8,1.2-1.8,1.9-2.7C2500.8,1399.7,2501.3,1398.7,2501.8,1397.8z"
					/>
			</g>
			<g>
				<path class="st3" d="M3028.5,1225.6c30.2-6.6,150.2-57.5,151.4-58l-1-2.3c-1.2,0.5-120.9,51.3-150.9,57.9L3028.5,1225.6z"/>
			</g>
			<g>
				<path class="st3" d="M1185.2,793.6c5.2,19.7,17.2,65.2,26.8,101.4c7.5,28.6,13.6,51.5,13.6,51.5c4.8,21.1,38.7,91.7,61.1,138.5
					c7.1,14.7,13.1,27.4,16.7,35c14.4,31.6,104.9,209.9,119.4,237.1c13.9,26.1,37.8,25.6,38.2,25.6l256.6,7.2l123,3.1l2.6,0
					l638.1,15.9c21.3-2.5,22.4-25,22.4-26.2c5.6-25.2,9.6-104.7,11.5-170.7c2.1-74.5,1.8-138.4-0.6-145.4
					c-2.6-7.5-17.2-49.6-31.2-90.3c-10.1-29.2-19.9-57.7-25-72.4l3.4,2.2c5.4,15.6,14.8,42.8,24.3,70.6
					c13.9,40.3,28.2,81.6,30.8,89.1c6.2,17.5-0.3,270-10.8,317.3c0,0.1-0.4,9.2-5.8,17.1c-0.1,0.1-0.1,0.2-0.2,0.3
					c0,0.1,0,0.1-0.1,0.2c0,0-0.1,0-0.1,0.1c-0.1,0.2-0.2,0.4-0.4,0.6c-3.7,4.9-9.4,9.1-18.2,10.2l-125.4-3.1l-1.6,0l-636.9-15.9
					l-149.7-4.2l-2.7-0.1l-104.2-2.9c-0.2,0-18.3,0.5-32.8-15.8c0,0,0,0-0.1-0.1c-0.8-0.9-1.6-1.8-2.4-2.9c0,0,0,0,0-0.1
					c-1.8-2.3-3.6-5.1-5.2-8.1c-14.5-27.2-105.1-205.6-119.5-237.2c-3.5-7.7-9.6-20.3-16.7-35c-22.4-46.8-56.4-117.6-61.3-138.9
					c0,0-6.1-23.3-13.8-52.2c-9.5-35.8-21.2-80.4-26.5-100.2L1185.2,793.6z"/>
			</g>
			<g>
				<path class="st3" d="M1781,671.9c6.6,42.5,36.6,235.5,39.3,253.2c0,0.1,0,0.2,0,0.3c0.1,0.3,4.7,20.1,9.2,36.2l14.4,39.8
					c0.2,5.8,4.8,132.3,4.7,204.3c-0.1,1.2-8.2,125.9-3.8,164.7l-4.2,22.7l-0.2,1.1l2.5,0.5l0.3-1.5l4.2-22.6l0-0.2
					c-4.4-38.4,3.7-163.2,3.8-164.5c0.2-73.4-4.6-203.4-4.7-204.7l-0.1-0.4l-14.5-39.8c-4.1-14.8-8.4-32.9-9-35.6
					c0-0.2-0.1-0.4-0.1-0.4c-2.5-15.9-32.5-209.5-39.3-252.9H1781z"/>
			</g>
			<g>
				<path class="st3" d="M977,1150.8l0.5-2.5c-0.8-0.2-81.4-17.3-150.3-26.3c-14.5-1.9-29.6-3.5-44.2-5
					c-56.2-5.9-109.3-11.4-120.4-32.3c-14.3-26.7-18-36.2-18-36.3l-2.4,0.9c0.1,0.4,3.8,9.6,18.2,36.5
					c11.8,22.1,65.5,27.7,122.4,33.7c14.6,1.5,29.7,3.1,44.2,5C895.7,1133.5,976.2,1150.6,977,1150.8z"/>
			</g>
		</g>
		<image style="overflow:visible;" width="262" height="135" xlink:href="9B55688B.png"  transform="matrix(1 0 0 1 3028 1052)">
		</image>
		<image style="overflow:visible;" width="174" height="148" xlink:href="9B55688D.png"  transform="matrix(1 0 0 1 616 930)">
		</image>
		<g>
			<path class="st1" d="M3126.1,1292.2c0,4.5,3.6,8.1,8.1,8.1h21.4c4.5,0,8.1-3.6,8.1-8.1l0,0c0-4.5-3.6-8.1-8.1-8.1h-21.4
				C3129.8,1284.2,3126.1,1287.8,3126.1,1292.2L3126.1,1292.2z"/>
			
				<linearGradient id="SVGID_16_" gradientUnits="userSpaceOnUse" x1="914.5945" y1="1303.119" x2="914.5945" y2="1270.9784" gradientTransform="matrix(-1 0 0 1 4059.5469 0)">
				<stop  offset="0.1177" style="stop-color:#DD7E55"/>
				<stop  offset="0.8261" style="stop-color:#BE222E"/>
			</linearGradient>
			<path class="st20" d="M3126.1,1290.2c0,4.5,3.6,8.1,8.1,8.1h21.4c4.5,0,8.1-3.6,8.1-8.1l0,0c0-4.5-3.6-8.1-8.1-8.1h-21.4
				C3129.8,1282.1,3126.1,1285.7,3126.1,1290.2L3126.1,1290.2z"/>
		</g>
		<g>
			<g>
				
					<radialGradient id="SVGID_17_" cx="1224.0869" cy="1378.2875" r="216.1977" gradientTransform="matrix(-1 0 0 1 4059.5469 0)" gradientUnits="userSpaceOnUse">
					<stop  offset="5.060820e-03" style="stop-color:#1A1A1A"/>
					<stop  offset="0.3775" style="stop-color:#1C1C1C"/>
					<stop  offset="0.5616" style="stop-color:#242424"/>
					<stop  offset="0.704" style="stop-color:#313030"/>
					<stop  offset="0.8249" style="stop-color:#434343"/>
					<stop  offset="0.8382" style="stop-color:#464545"/>
					<stop  offset="0.8915" style="stop-color:#434242"/>
					<stop  offset="0.9259" style="stop-color:#3B3A3A"/>
					<stop  offset="0.9549" style="stop-color:#2C2B2B"/>
					<stop  offset="0.9744" style="stop-color:#1D1D1D"/>
				</radialGradient>
				<path class="st21" d="M2619.3,1378.3c0,119.4,96.8,216.2,216.2,216.2c119.4,0,216.2-96.8,216.2-216.2s-96.8-216.2-216.2-216.2
					C2716.1,1162.1,2619.3,1258.9,2619.3,1378.3z"/>
				<g>
					<image style="overflow:visible;" width="463" height="463" xlink:href="73581A16.png"  transform="matrix(1 0 0 1 2604 1147)">
					</image>
				</g>
			</g>
			
				<linearGradient id="SVGID_18_" gradientUnits="userSpaceOnUse" x1="1190.8075" y1="1302.2125" x2="1251.9777" y2="1442.03" gradientTransform="matrix(-1 0 0 1 4059.5469 0)">
				<stop  offset="0" style="stop-color:#E5E2DF"/>
				<stop  offset="0" style="stop-color:#DED9D6"/>
				<stop  offset="6.299578e-02" style="stop-color:#CFCAC9"/>
				<stop  offset="0.1833" style="stop-color:#A8A4A7"/>
				<stop  offset="0.264" style="stop-color:#8B878D"/>
				<stop  offset="0.5225" style="stop-color:#F3F4F4"/>
				<stop  offset="0.5842" style="stop-color:#E5E5E6"/>
				<stop  offset="0.7027" style="stop-color:#C0BEC0"/>
				<stop  offset="0.8647" style="stop-color:#858085"/>
				<stop  offset="0.8764" style="stop-color:#807B80"/>
				<stop  offset="1" style="stop-color:#D1D3D4"/>
				<stop  offset="1" style="stop-color:#A7A9AC"/>
			</linearGradient>
			
				<radialGradient id="SVGID_19_" cx="1224.0912" cy="1378.288" r="166.6054" gradientTransform="matrix(-1 0 0 1 4059.5469 0)" gradientUnits="userSpaceOnUse">
				<stop  offset="0" style="stop-color:#E5E2DF"/>
				<stop  offset="0" style="stop-color:#DED9D6"/>
				<stop  offset="6.299578e-02" style="stop-color:#CFCAC9"/>
				<stop  offset="0.1833" style="stop-color:#A8A4A7"/>
				<stop  offset="0.264" style="stop-color:#8B878D"/>
				<stop  offset="0.5225" style="stop-color:#F3F4F4"/>
				<stop  offset="0.5842" style="stop-color:#E5E5E6"/>
				<stop  offset="0.7027" style="stop-color:#C0BEC0"/>
				<stop  offset="0.8647" style="stop-color:#858085"/>
				<stop  offset="0.8764" style="stop-color:#807B80"/>
				<stop  offset="1" style="stop-color:#D1D3D4"/>
				<stop  offset="1" style="stop-color:#A7A9AC"/>
			</radialGradient>
			<path class="st22" d="M2669.1,1378.3c0,91.9,74.5,166.4,166.4,166.4c91.9,0,166.4-74.5,166.4-166.4
				c0-91.9-74.5-166.4-166.4-166.4C2743.6,1211.9,2669.1,1286.4,2669.1,1378.3z M2754.1,1344.5c0,0,1.8,12.5-10.6,15.7
				c-12.4,3.1-39.6,10.8-58.7,3.7c0,0,1.1-37.6,24.3-71.2l5.5,1.9C2714.6,1294.6,2748.8,1321.1,2754.1,1344.5z M2879.8,1235.7
				c0,0-14.1,41-34.5,53.5c0,0-11.3,5.7-18.3-5c-7-10.7-23-34-22.5-54.4c0,0,35.9-11.2,75.2,0V1235.7z M2984.3,1377.7
				c0,0-43.3-1.8-61.1-17.7c0,0-8.7-9.2-0.5-18.9c8.2-9.7,26-31.8,45.7-37.1c0,0,21,31.2,21.5,72.1L2984.3,1377.7z M2950,1455.5
				c-6.4-4.8-32.4-23.7-48-28.9c0,0-23.9-15-14.3-34.8c0,0,7.3-18.7,27.7-10.8l56.3,15.4c0,0,14.7,1.9,11.7,12.9
				c-3,10.9-14.2,37.3-19.9,42.4C2963.6,1451.7,2956.4,1460.2,2950,1455.5z M2879.6,1456.5c0,0,5.6-11.4,17.6-7
				c12,4.4,38.8,13.3,50.7,29.9c0,0-22,30.5-60.1,45.3l-3.5-4.7C2884.2,1520,2870.8,1478.8,2879.6,1456.5z M2863.8,1305.1l30.1-50
				c0,0,5.8-13.6,15.5-7.8c9.7,5.8,32,23.8,35.4,30.6c0,0,6.3,9.2,0,14.1c-6.3,4.9-31.6,24.8-40.8,38.3c0,0-20.9,18.9-37.4,4.4
				C2866.7,1334.8,2850.7,1322.6,2863.8,1305.1z M2795.4,1515.7c1.9-7.7,9.1-39.1,7.8-55.4c0,0,4.4-27.8,26.4-26.8
				c0,0,20.1-0.6,20.8,21.3l7.9,57.8c0,0,4,14.2-7.2,15.8c-11.2,1.5-39.9,1.5-46.8-1.6C2804.2,1526.7,2793.5,1523.4,2795.4,1515.7z
				 M2773.2,1327.3l-38.1-44.2c0,0-11.1-9.8-2.5-17.2c8.6-7.4,32.6-23,40.1-24.1c0,0,10.7-3.1,13.4,4.4c2.6,7.5,13.7,37.7,23.7,50.7
				c0,0,11.5,25.7-7.5,36.9C2802.2,1333.8,2785.7,1345.2,2773.2,1327.3z M2712.3,1475l3.5-4.6c0,0,36.2-23.9,59.9-21.4
				c0,0,12.4,2.4,11.5,15.1c-1,12.7-2.5,41-15.3,56.9C2772,1520.8,2736.7,1507.8,2712.3,1475z M2687.6,1399.1c0,0-0.2-11.2,7.8-11.7
				c7.9-0.6,40-3.2,55.2-9.4c0,0,27.9-4.3,33.6,17c0,0,6.7,19-13.9,26.3l-52.7,25c0,0-12.4,8.1-17.2-2.1
				C2695.3,1433.9,2686.6,1406.6,2687.6,1399.1z M2835.5,1357.8c13.5,0,24.4,10.9,24.4,24.4c0,13.5-10.9,24.4-24.4,24.4
				c-13.5,0-24.4-10.9-24.4-24.4C2811.1,1368.7,2822,1357.8,2835.5,1357.8z"/>
			<g>
				<g>
					<g>
						<path class="st23" d="M2786.9,1367.4c0,6,4.9,10.9,10.9,10.9c6,0,10.9-4.9,10.9-10.9c0-6-4.9-10.9-10.9-10.9
							C2791.8,1356.5,2786.9,1361.4,2786.9,1367.4z"/>
						
							<linearGradient id="SVGID_20_" gradientUnits="userSpaceOnUse" x1="1256.5737" y1="1361.6366" x2="1268.7168" y2="1375.2369" gradientTransform="matrix(-1 0 0 1 4059.5469 0)">
							<stop  offset="0" style="stop-color:#E5E2DF"/>
							<stop  offset="0" style="stop-color:#DED9D6"/>
							<stop  offset="6.299578e-02" style="stop-color:#CFCAC9"/>
							<stop  offset="0.1833" style="stop-color:#A8A4A7"/>
							<stop  offset="0.264" style="stop-color:#8B878D"/>
							<stop  offset="0.5225" style="stop-color:#F3F4F4"/>
							<stop  offset="0.5842" style="stop-color:#E5E5E6"/>
							<stop  offset="0.7027" style="stop-color:#C0BEC0"/>
							<stop  offset="0.8647" style="stop-color:#858085"/>
							<stop  offset="0.8764" style="stop-color:#807B80"/>
							<stop  offset="1" style="stop-color:#D1D3D4"/>
							<stop  offset="1" style="stop-color:#A7A9AC"/>
						</linearGradient>
						<path class="st24" d="M2790.2,1367.4c0,4.2,3.4,7.7,7.7,7.7c4.3,0,7.7-3.4,7.7-7.7c0-4.2-3.4-7.7-7.7-7.7
							C2793.6,1359.7,2790.2,1363.2,2790.2,1367.4z"/>
					</g>
					<g>
						<path class="st23" d="M2825.6,1341.3c0,6,4.9,10.9,10.9,10.9c6,0,10.9-4.9,10.9-10.9c0-6-4.9-10.9-10.9-10.9
							C2830.5,1330.3,2825.6,1335.2,2825.6,1341.3z"/>
						
							<linearGradient id="SVGID_21_" gradientUnits="userSpaceOnUse" x1="1217.8898" y1="1335.5029" x2="1230.0254" y2="1349.0947" gradientTransform="matrix(-1 0 0 1 4059.5469 0)">
							<stop  offset="0" style="stop-color:#E5E2DF"/>
							<stop  offset="0" style="stop-color:#DED9D6"/>
							<stop  offset="6.299578e-02" style="stop-color:#CFCAC9"/>
							<stop  offset="0.1833" style="stop-color:#A8A4A7"/>
							<stop  offset="0.264" style="stop-color:#8B878D"/>
							<stop  offset="0.5225" style="stop-color:#F3F4F4"/>
							<stop  offset="0.5842" style="stop-color:#E5E5E6"/>
							<stop  offset="0.7027" style="stop-color:#C0BEC0"/>
							<stop  offset="0.8647" style="stop-color:#858085"/>
							<stop  offset="0.8764" style="stop-color:#807B80"/>
							<stop  offset="1" style="stop-color:#D1D3D4"/>
							<stop  offset="1" style="stop-color:#A7A9AC"/>
						</linearGradient>
						<path class="st25" d="M2828.8,1341.3c0,4.2,3.4,7.7,7.7,7.7c4.2,0,7.7-3.4,7.7-7.7c0-4.2-3.4-7.7-7.7-7.7
							C2832.3,1333.6,2828.8,1337,2828.8,1341.3z"/>
					</g>
					<g>
						<path class="st23" d="M2862.2,1370.6c0,6,4.9,10.9,10.9,10.9c6,0,10.9-4.9,10.9-10.9c0-6-4.9-10.9-10.9-10.9
							C2867.1,1359.7,2862.2,1364.6,2862.2,1370.6z"/>
						
							<linearGradient id="SVGID_22_" gradientUnits="userSpaceOnUse" x1="1181.3223" y1="1364.8851" x2="1193.4551" y2="1378.4739" gradientTransform="matrix(-1 0 0 1 4059.5469 0)">
							<stop  offset="0" style="stop-color:#E5E2DF"/>
							<stop  offset="0" style="stop-color:#DED9D6"/>
							<stop  offset="6.299578e-02" style="stop-color:#CFCAC9"/>
							<stop  offset="0.1833" style="stop-color:#A8A4A7"/>
							<stop  offset="0.264" style="stop-color:#8B878D"/>
							<stop  offset="0.5225" style="stop-color:#F3F4F4"/>
							<stop  offset="0.5842" style="stop-color:#E5E5E6"/>
							<stop  offset="0.7027" style="stop-color:#C0BEC0"/>
							<stop  offset="0.8647" style="stop-color:#858085"/>
							<stop  offset="0.8764" style="stop-color:#807B80"/>
							<stop  offset="1" style="stop-color:#D1D3D4"/>
							<stop  offset="1" style="stop-color:#A7A9AC"/>
						</linearGradient>
						<path class="st26" d="M2865.4,1370.6c0,4.2,3.4,7.7,7.7,7.7c4.2,0,7.7-3.4,7.7-7.7c0-4.2-3.4-7.7-7.7-7.7
							C2868.8,1363,2865.4,1366.4,2865.4,1370.6z"/>
					</g>
					<g>
						<path class="st23" d="M2844.2,1415.3c0,6,4.9,10.9,10.9,10.9c6,0,10.9-4.9,10.9-10.9c0-6-4.9-10.9-10.9-10.9
							C2849.1,1404.4,2844.2,1409.3,2844.2,1415.3z"/>
						
							<linearGradient id="SVGID_23_" gradientUnits="userSpaceOnUse" x1="1199.292" y1="1409.5671" x2="1211.4308" y2="1423.1626" gradientTransform="matrix(-1 0 0 1 4059.5469 0)">
							<stop  offset="0" style="stop-color:#E5E2DF"/>
							<stop  offset="0" style="stop-color:#DED9D6"/>
							<stop  offset="6.299578e-02" style="stop-color:#CFCAC9"/>
							<stop  offset="0.1833" style="stop-color:#A8A4A7"/>
							<stop  offset="0.264" style="stop-color:#8B878D"/>
							<stop  offset="0.5225" style="stop-color:#F3F4F4"/>
							<stop  offset="0.5842" style="stop-color:#E5E5E6"/>
							<stop  offset="0.7027" style="stop-color:#C0BEC0"/>
							<stop  offset="0.8647" style="stop-color:#858085"/>
							<stop  offset="0.8764" style="stop-color:#807B80"/>
							<stop  offset="1" style="stop-color:#D1D3D4"/>
							<stop  offset="1" style="stop-color:#A7A9AC"/>
						</linearGradient>
						<path class="st27" d="M2847.4,1415.3c0,4.3,3.4,7.7,7.7,7.7c4.2,0,7.7-3.4,7.7-7.7c0-4.2-3.5-7.7-7.7-7.7
							C2850.9,1407.7,2847.4,1411.1,2847.4,1415.3z"/>
					</g>
					<g>
						<path class="st23" d="M2797.8,1415.3c0,6,4.9,10.9,10.9,10.9c6,0,10.9-4.9,10.9-10.9c0-6-4.9-10.9-10.9-10.9
							C2802.7,1404.4,2797.8,1409.3,2797.8,1415.3z"/>
						
							<linearGradient id="SVGID_24_" gradientUnits="userSpaceOnUse" x1="1245.6403" y1="1409.5651" x2="1257.7841" y2="1423.1661" gradientTransform="matrix(-1 0 0 1 4059.5469 0)">
							<stop  offset="0" style="stop-color:#E5E2DF"/>
							<stop  offset="0" style="stop-color:#DED9D6"/>
							<stop  offset="6.299578e-02" style="stop-color:#CFCAC9"/>
							<stop  offset="0.1833" style="stop-color:#A8A4A7"/>
							<stop  offset="0.264" style="stop-color:#8B878D"/>
							<stop  offset="0.5225" style="stop-color:#F3F4F4"/>
							<stop  offset="0.5842" style="stop-color:#E5E5E6"/>
							<stop  offset="0.7027" style="stop-color:#C0BEC0"/>
							<stop  offset="0.8647" style="stop-color:#858085"/>
							<stop  offset="0.8764" style="stop-color:#807B80"/>
							<stop  offset="1" style="stop-color:#D1D3D4"/>
							<stop  offset="1" style="stop-color:#A7A9AC"/>
						</linearGradient>
						<path class="st28" d="M2801.1,1415.3c0,4.3,3.4,7.7,7.7,7.7c4.2,0,7.7-3.4,7.7-7.7c0-4.2-3.4-7.7-7.7-7.7
							C2804.5,1407.7,2801.1,1411.1,2801.1,1415.3z"/>
					</g>
				</g>
				
					<linearGradient id="SVGID_25_" gradientUnits="userSpaceOnUse" x1="1228.3589" y1="1370.998" x2="1219.6189" y2="1393.8193" gradientTransform="matrix(-1 0 0 1 4059.5469 0)">
					<stop  offset="0" style="stop-color:#E5E2DF"/>
					<stop  offset="0" style="stop-color:#DED9D6"/>
					<stop  offset="6.299578e-02" style="stop-color:#CFCAC9"/>
					<stop  offset="0.1833" style="stop-color:#A8A4A7"/>
					<stop  offset="0.264" style="stop-color:#8B878D"/>
					<stop  offset="0.5225" style="stop-color:#F3F4F4"/>
					<stop  offset="0.5842" style="stop-color:#E5E5E6"/>
					<stop  offset="0.7027" style="stop-color:#C0BEC0"/>
					<stop  offset="0.8647" style="stop-color:#858085"/>
					<stop  offset="0.8764" style="stop-color:#807B80"/>
					<stop  offset="1" style="stop-color:#D1D3D4"/>
					<stop  offset="1" style="stop-color:#A7A9AC"/>
				</linearGradient>
				<path class="st29" d="M2817.3,1382.2c0,10,8.1,18.1,18.1,18.1c10,0,18.1-8.1,18.1-18.1c0-10-8.1-18.1-18.1-18.1
					C2825.4,1364,2817.3,1372.1,2817.3,1382.2z"/>
			</g>
		</g>
		<g>
			<g>
				
					<radialGradient id="SVGID_26_" cx="2956.9231" cy="1378.2875" r="216.1996" gradientTransform="matrix(-1 0 0 1 4059.5469 0)" gradientUnits="userSpaceOnUse">
					<stop  offset="5.060820e-03" style="stop-color:#1A1A1A"/>
					<stop  offset="0.3775" style="stop-color:#1C1C1C"/>
					<stop  offset="0.5616" style="stop-color:#242424"/>
					<stop  offset="0.704" style="stop-color:#313030"/>
					<stop  offset="0.8249" style="stop-color:#434343"/>
					<stop  offset="0.8382" style="stop-color:#464545"/>
					<stop  offset="0.8915" style="stop-color:#434242"/>
					<stop  offset="0.9259" style="stop-color:#3B3A3A"/>
					<stop  offset="0.9549" style="stop-color:#2C2B2B"/>
					<stop  offset="0.9744" style="stop-color:#1D1D1D"/>
				</radialGradient>
				<path class="st30" d="M886.4,1378.3c0,119.4,96.8,216.2,216.2,216.2s216.2-96.8,216.2-216.2s-96.8-216.2-216.2-216.2
					S886.4,1258.9,886.4,1378.3z"/>
				<g>
					<image style="overflow:visible;" width="463" height="463" xlink:href="73581A11.png"  transform="matrix(1 0 0 1 871 1147)">
					</image>
				</g>
			</g>
			
				<linearGradient id="SVGID_27_" gradientUnits="userSpaceOnUse" x1="2923.6421" y1="1302.2136" x2="2984.8123" y2="1442.0308" gradientTransform="matrix(-1 0 0 1 4059.5469 0)">
				<stop  offset="0" style="stop-color:#E5E2DF"/>
				<stop  offset="0" style="stop-color:#DED9D6"/>
				<stop  offset="6.299578e-02" style="stop-color:#CFCAC9"/>
				<stop  offset="0.1833" style="stop-color:#A8A4A7"/>
				<stop  offset="0.264" style="stop-color:#8B878D"/>
				<stop  offset="0.5225" style="stop-color:#F3F4F4"/>
				<stop  offset="0.5842" style="stop-color:#E5E5E6"/>
				<stop  offset="0.7027" style="stop-color:#C0BEC0"/>
				<stop  offset="0.8647" style="stop-color:#858085"/>
				<stop  offset="0.8764" style="stop-color:#807B80"/>
				<stop  offset="1" style="stop-color:#D1D3D4"/>
				<stop  offset="1" style="stop-color:#A7A9AC"/>
			</linearGradient>
			
				<radialGradient id="SVGID_28_" cx="2956.9246" cy="1378.288" r="166.6044" gradientTransform="matrix(-1 0 0 1 4059.5469 0)" gradientUnits="userSpaceOnUse">
				<stop  offset="0" style="stop-color:#E5E2DF"/>
				<stop  offset="0" style="stop-color:#DED9D6"/>
				<stop  offset="6.299578e-02" style="stop-color:#CFCAC9"/>
				<stop  offset="0.1833" style="stop-color:#A8A4A7"/>
				<stop  offset="0.264" style="stop-color:#8B878D"/>
				<stop  offset="0.5225" style="stop-color:#F3F4F4"/>
				<stop  offset="0.5842" style="stop-color:#E5E5E6"/>
				<stop  offset="0.7027" style="stop-color:#C0BEC0"/>
				<stop  offset="0.8647" style="stop-color:#858085"/>
				<stop  offset="0.8764" style="stop-color:#807B80"/>
				<stop  offset="1" style="stop-color:#D1D3D4"/>
				<stop  offset="1" style="stop-color:#A7A9AC"/>
			</radialGradient>
			<path class="st31" d="M936.3,1378.3c0,91.9,74.5,166.4,166.4,166.4c91.9,0,166.4-74.5,166.4-166.4c0-91.9-74.5-166.4-166.4-166.4
				C1010.7,1211.9,936.3,1286.4,936.3,1378.3z M1021.3,1344.5c0,0,1.8,12.5-10.6,15.7c-12.4,3.1-39.6,10.8-58.7,3.7
				c0,0,1-37.6,24.3-71.2l5.5,1.9C981.8,1294.6,1016,1321.1,1021.3,1344.5z M1147,1235.7c0,0-14.1,41-34.5,53.5c0,0-11.3,5.7-18.3-5
				c-7-10.7-23-34-22.5-54.4c0,0,35.9-11.2,75.2,0V1235.7z M1251.5,1377.7c0,0-43.3-1.8-61.1-17.7c0,0-8.7-9.2-0.5-18.9
				c8.2-9.7,26-31.8,45.7-37.1c0,0,21,31.2,21.5,72.1L1251.5,1377.7z M1217.2,1455.5c-6.4-4.8-32.4-23.7-48-28.9
				c0,0-23.9-15-14.3-34.8c0,0,7.3-18.7,27.7-10.8l56.3,15.4c0,0,14.6,1.9,11.7,12.9c-3,10.9-14.2,37.3-19.9,42.4
				C1230.7,1451.7,1223.6,1460.2,1217.2,1455.5z M1146.7,1456.5c0,0,5.6-11.4,17.6-7c12,4.4,38.8,13.3,50.7,29.9
				c0,0-22,30.5-60.1,45.3l-3.5-4.7C1151.4,1520,1138,1478.8,1146.7,1456.5z M1131,1305.1l30.1-50c0,0,5.8-13.6,15.5-7.8
				c9.7,5.8,32,23.8,35.4,30.6c0,0,6.3,9.2,0,14.1c-6.3,4.9-31.6,24.8-40.8,38.3c0,0-20.9,18.9-37.4,4.4
				C1133.9,1334.8,1117.8,1322.6,1131,1305.1z M1062.6,1515.7c1.9-7.7,9.1-39.1,7.7-55.4c0,0,4.4-27.8,26.4-26.8
				c0,0,20.1-0.6,20.8,21.3l7.9,57.8c0,0,4,14.2-7.2,15.8c-11.2,1.5-39.9,1.5-46.8-1.6C1071.4,1526.7,1060.7,1523.4,1062.6,1515.7z
				 M1040.3,1327.3l-38.1-44.2c0,0-11.1-9.8-2.5-17.2c8.6-7.4,32.6-23,40.1-24.1c0,0,10.7-3.1,13.4,4.4c2.7,7.5,13.7,37.7,23.7,50.7
				c0,0,11.5,25.7-7.5,36.9C1069.4,1333.8,1052.8,1345.2,1040.3,1327.3z M979.5,1475l3.5-4.6c0,0,36.2-23.9,59.9-21.4
				c0,0,12.4,2.4,11.5,15.1c-1,12.7-2.5,41-15.3,56.9C1039.1,1520.8,1003.8,1507.8,979.5,1475z M954.7,1399.1c0,0-0.2-11.2,7.8-11.7
				c7.9-0.6,40-3.2,55.2-9.4c0,0,27.9-4.3,33.6,17c0,0,6.7,19-13.9,26.3l-52.7,25c0,0-12.4,8.1-17.2-2.1
				C962.5,1433.9,953.8,1406.6,954.7,1399.1z M1102.6,1357.8c13.5,0,24.4,10.9,24.4,24.4c0,13.5-10.9,24.4-24.4,24.4
				c-13.5,0-24.4-10.9-24.4-24.4C1078.2,1368.7,1089.2,1357.8,1102.6,1357.8z"/>
			<g>
				<g>
					<g>
						<path class="st23" d="M1054.1,1367.4c0,6,4.9,10.9,10.9,10.9c6,0,10.9-4.9,10.9-10.9c0-6-4.9-10.9-10.9-10.9
							C1059,1356.5,1054.1,1361.4,1054.1,1367.4z"/>
						
							<linearGradient id="SVGID_29_" gradientUnits="userSpaceOnUse" x1="2989.4077" y1="1361.6364" x2="3001.5508" y2="1375.2366" gradientTransform="matrix(-1 0 0 1 4059.5469 0)">
							<stop  offset="0" style="stop-color:#E5E2DF"/>
							<stop  offset="0" style="stop-color:#DED9D6"/>
							<stop  offset="6.299578e-02" style="stop-color:#CFCAC9"/>
							<stop  offset="0.1833" style="stop-color:#A8A4A7"/>
							<stop  offset="0.264" style="stop-color:#8B878D"/>
							<stop  offset="0.5225" style="stop-color:#F3F4F4"/>
							<stop  offset="0.5842" style="stop-color:#E5E5E6"/>
							<stop  offset="0.7027" style="stop-color:#C0BEC0"/>
							<stop  offset="0.8647" style="stop-color:#858085"/>
							<stop  offset="0.8764" style="stop-color:#807B80"/>
							<stop  offset="1" style="stop-color:#D1D3D4"/>
							<stop  offset="1" style="stop-color:#A7A9AC"/>
						</linearGradient>
						<path class="st32" d="M1057.3,1367.4c0,4.2,3.4,7.7,7.7,7.7c4.2,0,7.7-3.4,7.7-7.7c0-4.2-3.4-7.7-7.7-7.7
							C1060.8,1359.7,1057.3,1363.2,1057.3,1367.4z"/>
					</g>
					<g>
						<path class="st23" d="M1092.8,1341.3c0,6,4.9,10.9,10.9,10.9c6,0,10.9-4.9,10.9-10.9c0-6-4.9-10.9-10.9-10.9
							C1097.6,1330.3,1092.8,1335.2,1092.8,1341.3z"/>
						
							<linearGradient id="SVGID_30_" gradientUnits="userSpaceOnUse" x1="2950.7236" y1="1335.5031" x2="2962.8594" y2="1349.0951" gradientTransform="matrix(-1 0 0 1 4059.5469 0)">
							<stop  offset="0" style="stop-color:#E5E2DF"/>
							<stop  offset="0" style="stop-color:#DED9D6"/>
							<stop  offset="6.299578e-02" style="stop-color:#CFCAC9"/>
							<stop  offset="0.1833" style="stop-color:#A8A4A7"/>
							<stop  offset="0.264" style="stop-color:#8B878D"/>
							<stop  offset="0.5225" style="stop-color:#F3F4F4"/>
							<stop  offset="0.5842" style="stop-color:#E5E5E6"/>
							<stop  offset="0.7027" style="stop-color:#C0BEC0"/>
							<stop  offset="0.8647" style="stop-color:#858085"/>
							<stop  offset="0.8764" style="stop-color:#807B80"/>
							<stop  offset="1" style="stop-color:#D1D3D4"/>
							<stop  offset="1" style="stop-color:#A7A9AC"/>
						</linearGradient>
						<path class="st33" d="M1096,1341.3c0,4.2,3.4,7.7,7.7,7.7c4.2,0,7.7-3.4,7.7-7.7c0-4.2-3.4-7.7-7.7-7.7
							C1099.5,1333.6,1096,1337,1096,1341.3z"/>
					</g>
					<g>
						<path class="st23" d="M1129.3,1370.6c0,6,4.9,10.9,10.9,10.9c6,0,10.9-4.9,10.9-10.9c0-6-4.9-10.9-10.9-10.9
							C1134.2,1359.7,1129.3,1364.6,1129.3,1370.6z"/>
						
							<linearGradient id="SVGID_31_" gradientUnits="userSpaceOnUse" x1="2914.1504" y1="1364.884" x2="2926.2859" y2="1378.4758" gradientTransform="matrix(-1 0 0 1 4059.5469 0)">
							<stop  offset="0" style="stop-color:#E5E2DF"/>
							<stop  offset="0" style="stop-color:#DED9D6"/>
							<stop  offset="6.299578e-02" style="stop-color:#CFCAC9"/>
							<stop  offset="0.1833" style="stop-color:#A8A4A7"/>
							<stop  offset="0.264" style="stop-color:#8B878D"/>
							<stop  offset="0.5225" style="stop-color:#F3F4F4"/>
							<stop  offset="0.5842" style="stop-color:#E5E5E6"/>
							<stop  offset="0.7027" style="stop-color:#C0BEC0"/>
							<stop  offset="0.8647" style="stop-color:#858085"/>
							<stop  offset="0.8764" style="stop-color:#807B80"/>
							<stop  offset="1" style="stop-color:#D1D3D4"/>
							<stop  offset="1" style="stop-color:#A7A9AC"/>
						</linearGradient>
						<path class="st34" d="M1132.6,1370.6c0,4.2,3.4,7.7,7.7,7.7c4.2,0,7.7-3.4,7.7-7.7c0-4.2-3.4-7.7-7.7-7.7
							C1136,1363,1132.6,1366.4,1132.6,1370.6z"/>
					</g>
					<g>
						<path class="st23" d="M1111.3,1415.3c0,6,4.9,10.9,10.9,10.9c6,0,10.9-4.9,10.9-10.9c0-6-4.9-10.9-10.9-10.9
							C1116.2,1404.4,1111.3,1409.3,1111.3,1415.3z"/>
						
							<linearGradient id="SVGID_32_" gradientUnits="userSpaceOnUse" x1="2932.1228" y1="1409.566" x2="2944.2642" y2="1423.1642" gradientTransform="matrix(-1 0 0 1 4059.5469 0)">
							<stop  offset="0" style="stop-color:#E5E2DF"/>
							<stop  offset="0" style="stop-color:#DED9D6"/>
							<stop  offset="6.299578e-02" style="stop-color:#CFCAC9"/>
							<stop  offset="0.1833" style="stop-color:#A8A4A7"/>
							<stop  offset="0.264" style="stop-color:#8B878D"/>
							<stop  offset="0.5225" style="stop-color:#F3F4F4"/>
							<stop  offset="0.5842" style="stop-color:#E5E5E6"/>
							<stop  offset="0.7027" style="stop-color:#C0BEC0"/>
							<stop  offset="0.8647" style="stop-color:#858085"/>
							<stop  offset="0.8764" style="stop-color:#807B80"/>
							<stop  offset="1" style="stop-color:#D1D3D4"/>
							<stop  offset="1" style="stop-color:#A7A9AC"/>
						</linearGradient>
						<path class="st35" d="M1114.6,1415.3c0,4.3,3.4,7.7,7.7,7.7c4.2,0,7.7-3.4,7.7-7.7c0-4.2-3.4-7.7-7.7-7.7
							C1118,1407.7,1114.6,1411.1,1114.6,1415.3z"/>
					</g>
					<g>
						<path class="st23" d="M1065,1415.3c0,6,4.9,10.9,10.9,10.9c6,0,10.9-4.9,10.9-10.9c0-6-4.9-10.9-10.9-10.9
							C1069.9,1404.4,1065,1409.3,1065,1415.3z"/>
						
							<linearGradient id="SVGID_33_" gradientUnits="userSpaceOnUse" x1="2978.4734" y1="1409.5651" x2="2990.6165" y2="1423.165" gradientTransform="matrix(-1 0 0 1 4059.5469 0)">
							<stop  offset="0" style="stop-color:#E5E2DF"/>
							<stop  offset="0" style="stop-color:#DED9D6"/>
							<stop  offset="6.299578e-02" style="stop-color:#CFCAC9"/>
							<stop  offset="0.1833" style="stop-color:#A8A4A7"/>
							<stop  offset="0.264" style="stop-color:#8B878D"/>
							<stop  offset="0.5225" style="stop-color:#F3F4F4"/>
							<stop  offset="0.5842" style="stop-color:#E5E5E6"/>
							<stop  offset="0.7027" style="stop-color:#C0BEC0"/>
							<stop  offset="0.8647" style="stop-color:#858085"/>
							<stop  offset="0.8764" style="stop-color:#807B80"/>
							<stop  offset="1" style="stop-color:#D1D3D4"/>
							<stop  offset="1" style="stop-color:#A7A9AC"/>
						</linearGradient>
						<path class="st36" d="M1068.3,1415.3c0,4.3,3.4,7.7,7.7,7.7c4.2,0,7.7-3.4,7.7-7.7c0-4.2-3.4-7.7-7.7-7.7
							C1071.7,1407.7,1068.3,1411.1,1068.3,1415.3z"/>
					</g>
				</g>
				
					<linearGradient id="SVGID_34_" gradientUnits="userSpaceOnUse" x1="2961.1953" y1="1370.9982" x2="2952.4553" y2="1393.8191" gradientTransform="matrix(-1 0 0 1 4059.5469 0)">
					<stop  offset="0" style="stop-color:#E5E2DF"/>
					<stop  offset="0" style="stop-color:#DED9D6"/>
					<stop  offset="6.299578e-02" style="stop-color:#CFCAC9"/>
					<stop  offset="0.1833" style="stop-color:#A8A4A7"/>
					<stop  offset="0.264" style="stop-color:#8B878D"/>
					<stop  offset="0.5225" style="stop-color:#F3F4F4"/>
					<stop  offset="0.5842" style="stop-color:#E5E5E6"/>
					<stop  offset="0.7027" style="stop-color:#C0BEC0"/>
					<stop  offset="0.8647" style="stop-color:#858085"/>
					<stop  offset="0.8764" style="stop-color:#807B80"/>
					<stop  offset="1" style="stop-color:#D1D3D4"/>
					<stop  offset="1" style="stop-color:#A7A9AC"/>
				</linearGradient>
				<path class="st37" d="M1084.5,1382.2c0,10,8.1,18.1,18.1,18.1c10,0,18.1-8.1,18.1-18.1c0-10-8.1-18.1-18.1-18.1
					C1092.6,1364,1084.5,1372.1,1084.5,1382.2z"/>
			</g>
		</g>
		<path d="M3250.2,1384.3c29.9-7.2,43.8-16.4,43.8-16.4c7.8-13.3,14.5-47.6,14.5-47.6c1.8-8.5-10.3-9.1-10.3-9.1s-9.2,0-21.6,0
			C3275.1,1325.7,3269.5,1351.8,3250.2,1384.3z"/>
	</g>
	<defs>
		<filter id="Adobe_OpacityMaskFilter" filterUnits="userSpaceOnUse" x="654.2" y="1553.9" width="2608" height="54.2">
			<feColorMatrix  type="matrix" values="1 0 0 0 0  0 1 0 0 0  0 0 1 0 0  0 0 0 1 0"/>
		</filter>
	</defs>
	<mask maskUnits="userSpaceOnUse" x="654.2" y="1553.9" width="2608" height="54.2" id="SVGID_35_">
		<g class="st38">
			
				<radialGradient id="SVGID_36_" cx="2488.5061" cy="-3262.2407" r="310.6684" gradientTransform="matrix(4.1981 -2.090000e-02 -3.830000e-02 -8.470000e-02 -8613.7969 1356.7477)" gradientUnits="userSpaceOnUse">
				<stop  offset="0" style="stop-color:#FFFFFF"/>
				<stop  offset="0.1213" style="stop-color:#D1D1D1"/>
				<stop  offset="0.3023" style="stop-color:#939392"/>
				<stop  offset="0.4757" style="stop-color:#5F5F5E"/>
				<stop  offset="0.6368" style="stop-color:#373735"/>
				<stop  offset="0.7828" style="stop-color:#1A1A18"/>
				<stop  offset="0.9086" style="stop-color:#080806"/>
				<stop  offset="1" style="stop-color:#020200"/>
			</radialGradient>
			<path class="st39" d="M3262.1,1574.6c-7.3-14.5-596.7-23.4-1317-19.8c-719.9,3.6-1297.5,18.3-1290.9,32.8
				c3.9,14.5,594.2,23.4,1315.2,19.8C2690.8,1603.8,3270.1,1589.1,3262.1,1574.6z"/>
		</g>
	</mask>
	
		<linearGradient id="SVGID_37_" gradientUnits="userSpaceOnUse" x1="1415.588" y1="1582.1073" x2="3307.5" y2="1582.1073" gradientTransform="matrix(-1.3785 1.400000e-03 -1.400000e-03 1 5215.7681 -4.3596)">
		<stop  offset="0.2206" style="stop-color:#232224"/>
		<stop  offset="0.9823" style="stop-color:#000000"/>
	</linearGradient>
	<path class="st40" d="M3262.1,1574.6c-7.3-14.5-596.7-23.4-1317-19.8c-719.9,3.6-1297.5,18.3-1290.9,32.8
		c3.9,14.5,594.2,23.4,1315.2,19.8C2690.8,1603.8,3270.1,1589.1,3262.1,1574.6z"/>
</g>
</svg>
