<svg id="Layer_1" data-name="Layer 1" xmlns="http://www.w3.org/2000/svg" viewBox="0 0 553.9 1732.74"><defs><style>.cls-1{fill:#4c4a4f;}.cls-2{fill:#848187;}.cls-3{fill:#36333a;}.cls-4{fill:#6d6a71;}.cls-5{fill:#3e3c40;}.cls-6{fill:#2c2b2e;}.cls-7{fill:#535056;}.cls-8{fill:#3e3b42;}.cls-9{fill:#008145;}.cls-10{fill:#00984d;}.cls-11{fill:#31a649;}.cls-12{fill:#7fc35f;}</style></defs><path class="cls-1" d="M7199.5,7793.69c-32.56,0-59-4.78-59-10.71v272.18c0,5.93,26.4,10.71,59,10.71s58.95-4.78,58.95-10.71V7783C7258.45,7788.91,7232.05,7793.69,7199.5,7793.69Z" transform="translate(-6922.55 -6333.13)"/><path class="cls-2" d="M7236.51,8029a10,10,0,0,1-10,10h0a10,10,0,0,1-10-10V7819.82a10,10,0,0,1,10-10h0a10,10,0,0,1,10,10Z" transform="translate(-6922.55 -6333.13)"/><path class="cls-3" d="M7258.45,7783c0,7.34-26.39,13.28-58.95,13.28s-59-5.94-59-13.28,26.4-13.27,59-13.27S7258.45,7775.68,7258.45,7783Z" transform="translate(-6922.55 -6333.13)"/><path class="cls-4" d="M7155.73,6987.77V7776c0,4.41,19.59,7.95,43.77,7.95s43.77-3.54,43.77-7.95V6987.77Z" transform="translate(-6922.55 -6333.13)"/><rect class="cls-1" x="233.18" y="962.97" width="87.54" height="82.28"/><path class="cls-2" d="M7224.93,7744.23a10,10,0,0,1-10,10h0a10,10,0,0,1-10-10v-345.7a10,10,0,0,1,10-10h0a10,10,0,0,1,10,10Z" transform="translate(-6922.55 -6333.13)"/><path class="cls-5" d="M7090.12,6422.71a5.16,5.16,0,0,0-5.18-4.79h-157.2a5.18,5.18,0,0,0-4.52,2.63,5.08,5.08,0,0,0,.09,5.19c17.27,28,29.72,64.87,41.77,100.51,21.31,63.07,27.57,122.63,72.22,122.63h63a5.2,5.2,0,0,0,3.79-1.63,5.12,5.12,0,0,0,1.39-3.86Z" transform="translate(-6922.55 -6333.13)"/><path class="cls-5" d="M7090.12,6734a5.16,5.16,0,0,0-5.18-4.78h-157.2a5.17,5.17,0,0,0-4.52,2.62,5.08,5.08,0,0,0,.09,5.19c17.27,28,29.72,64.87,41.77,100.51,21.31,63.07,27.57,122.64,72.22,122.64h63a5.17,5.17,0,0,0,3.79-1.64,5.11,5.11,0,0,0,1.39-3.85Z" transform="translate(-6922.55 -6333.13)"/><path class="cls-5" d="M7090.12,7045.21a5.16,5.16,0,0,0-5.18-4.78h-157.2a5.17,5.17,0,0,0-4.52,2.62,5.08,5.08,0,0,0,.09,5.19c17.27,28,29.72,64.87,41.77,100.52,21.31,63.06,27.57,122.63,72.22,122.63h63a5.2,5.2,0,0,0,3.79-1.63,5.13,5.13,0,0,0,1.39-3.86Z" transform="translate(-6922.55 -6333.13)"/><path class="cls-5" d="M7308.88,6422.71a5.16,5.16,0,0,1,5.18-4.79h157.2a5.21,5.21,0,0,1,4.52,2.63,5.11,5.11,0,0,1-.09,5.19c-17.27,28-29.73,64.87-41.77,100.51-21.31,63.07-27.57,122.63-72.22,122.63h-63a5.24,5.24,0,0,1-3.8-1.63,5.11,5.11,0,0,1-1.38-3.86Z" transform="translate(-6922.55 -6333.13)"/><path class="cls-5" d="M7308.88,6734a5.16,5.16,0,0,1,5.18-4.78h157.2a5.2,5.2,0,0,1,4.52,2.62,5.11,5.11,0,0,1-.09,5.19c-17.27,28-29.73,64.87-41.77,100.51-21.31,63.07-27.57,122.64-72.22,122.64h-63a5.21,5.21,0,0,1-3.8-1.64,5.1,5.1,0,0,1-1.38-3.85Z" transform="translate(-6922.55 -6333.13)"/><path class="cls-5" d="M7308.88,7045.21a5.16,5.16,0,0,1,5.18-4.78h157.2a5.2,5.2,0,0,1,4.52,2.62,5.11,5.11,0,0,1-.09,5.19c-17.27,28-29.73,64.87-41.77,100.52-21.31,63.06-27.57,122.63-72.22,122.63h-63a5.24,5.24,0,0,1-3.8-1.63,5.12,5.12,0,0,1-1.38-3.86Z" transform="translate(-6922.55 -6333.13)"/><path class="cls-3" d="M7331.19,6434.5a28.94,28.94,0,0,1-29,28.93H7098.06a28.92,28.92,0,0,1-28.92-28.93v-72.38a28.94,28.94,0,0,1,28.92-29h204.15a29,29,0,0,1,29,29Z" transform="translate(-6922.55 -6333.13)"/><path class="cls-3" d="M7331.19,7325.43a28.94,28.94,0,0,1-29,28.93H7098.06a28.92,28.92,0,0,1-28.92-28.93v-72.38a28.94,28.94,0,0,1,28.92-29h204.15a29,29,0,0,1,29,29Z" transform="translate(-6922.55 -6333.13)"/><path class="cls-3" d="M7308.48,7064.65a23.93,23.93,0,0,1-24,23.93H7115.76a23.91,23.91,0,0,1-23.91-23.93V7004.8a23.91,23.91,0,0,1,23.91-23.92h168.76a23.92,23.92,0,0,1,24,23.92Z" transform="translate(-6922.55 -6333.13)"/><rect class="cls-6" x="116.04" y="38.9" width="323.15" height="945.26" rx="4.56"/><rect class="cls-5" x="126.37" y="46.53" width="302.49" height="302.49" rx="4.56"/><path class="cls-1" d="M7342.65,6530.91a141.84,141.84,0,1,1-141.83-141.86A141.87,141.87,0,0,1,7342.65,6530.91Z" transform="translate(-6922.55 -6333.13)"/><path class="cls-4" d="M7076.17,6397.14a9.12,9.12,0,1,1-9.12-9.12A9.12,9.12,0,0,1,7076.17,6397.14Z" transform="translate(-6922.55 -6333.13)"/><path class="cls-4" d="M7076.17,6663.65a9.12,9.12,0,1,1-9.12-9.12A9.12,9.12,0,0,1,7076.17,6663.65Z" transform="translate(-6922.55 -6333.13)"/><path class="cls-4" d="M7342.65,6397.14a9.12,9.12,0,1,1-9.12-9.12A9.12,9.12,0,0,1,7342.65,6397.14Z" transform="translate(-6922.55 -6333.13)"/><path class="cls-4" d="M7342.65,6663.65a9.12,9.12,0,1,1-9.12-9.12A9.12,9.12,0,0,1,7342.65,6663.65Z" transform="translate(-6922.55 -6333.13)"/><path class="cls-6" d="M7322.57,6530.91a121.76,121.76,0,1,1-121.75-121.78A121.79,121.79,0,0,1,7322.57,6530.91Z" transform="translate(-6922.55 -6333.13)"/><path class="cls-1" d="M7310.38,6530.91a109.57,109.57,0,1,1-109.56-109.59A109.59,109.59,0,0,1,7310.38,6530.91Z" transform="translate(-6922.55 -6333.13)"/><path class="cls-3" d="M7300.57,6530.91a99.74,99.74,0,1,1-99.76-99.73A99.73,99.73,0,0,1,7300.57,6530.91Z" transform="translate(-6922.55 -6333.13)"/><path class="cls-7" d="M7214.68,6611.6c0,5.18-6.21,9.38-13.87,9.38s-13.88-4.2-13.88-9.38,6.22-9.4,13.88-9.4S7214.68,6606.41,7214.68,6611.6Z" transform="translate(-6922.55 -6333.13)"/><path class="cls-8" d="M7200.83,6547.11c38.63,0,73.62-10.49,99.1-27.49a99.74,99.74,0,0,0-198.19,0C7127.24,6536.62,7162.23,6547.11,7200.83,6547.11Z" transform="translate(-6922.55 -6333.13)"/><path class="cls-7" d="M7252.34,6480.07c0,19.27-23.06,34.86-51.53,34.86s-51.54-15.59-51.54-34.86,23.1-34.9,51.54-34.9S7252.34,6460.81,7252.34,6480.07Z" transform="translate(-6922.55 -6333.13)"/><rect class="cls-5" x="126.37" y="359.76" width="302.49" height="302.49" rx="4.56"/><path class="cls-1" d="M7342.65,6844.14a141.84,141.84,0,1,1-141.83-141.85A141.87,141.87,0,0,1,7342.65,6844.14Z" transform="translate(-6922.55 -6333.13)"/><path class="cls-4" d="M7076.17,6710.37a9.12,9.12,0,1,1-9.12-9.11A9.12,9.12,0,0,1,7076.17,6710.37Z" transform="translate(-6922.55 -6333.13)"/><path class="cls-4" d="M7076.17,6976.88a9.12,9.12,0,1,1-9.12-9.12A9.12,9.12,0,0,1,7076.17,6976.88Z" transform="translate(-6922.55 -6333.13)"/><path class="cls-4" d="M7342.65,6710.37a9.12,9.12,0,1,1-9.12-9.11A9.12,9.12,0,0,1,7342.65,6710.37Z" transform="translate(-6922.55 -6333.13)"/><path class="cls-4" d="M7342.65,6976.88a9.12,9.12,0,1,1-9.12-9.12A9.12,9.12,0,0,1,7342.65,6976.88Z" transform="translate(-6922.55 -6333.13)"/><path class="cls-6" d="M7322.57,6844.14a121.76,121.76,0,1,1-121.75-121.77A121.79,121.79,0,0,1,7322.57,6844.14Z" transform="translate(-6922.55 -6333.13)"/><path class="cls-1" d="M7310.38,6844.14a109.57,109.57,0,1,1-109.56-109.58A109.59,109.59,0,0,1,7310.38,6844.14Z" transform="translate(-6922.55 -6333.13)"/><path class="cls-3" d="M7300.57,6844.14a99.74,99.74,0,1,1-99.76-99.73A99.74,99.74,0,0,1,7300.57,6844.14Z" transform="translate(-6922.55 -6333.13)"/><path class="cls-7" d="M7214.68,6924.6c0,5.18-6.21,9.38-13.87,9.38s-13.88-4.2-13.88-9.38,6.22-9.4,13.88-9.4S7214.68,6919.41,7214.68,6924.6Z" transform="translate(-6922.55 -6333.13)"/><path class="cls-8" d="M7200.83,6860.34c38.63,0,73.62-10.49,99.1-27.49a99.74,99.74,0,0,0-198.19,0C7127.24,6849.86,7162.23,6860.34,7200.83,6860.34Z" transform="translate(-6922.55 -6333.13)"/><path class="cls-7" d="M7252.34,6793.3c0,19.27-23.06,34.86-51.53,34.86s-51.54-15.59-51.54-34.86,23.1-34.9,51.54-34.9S7252.34,6774,7252.34,6793.3Z" transform="translate(-6922.55 -6333.13)"/><rect class="cls-5" x="126.37" y="672.99" width="302.49" height="302.49" rx="4.56"/><path class="cls-1" d="M7342.65,7157.37a141.84,141.84,0,1,1-141.83-141.85A141.87,141.87,0,0,1,7342.65,7157.37Z" transform="translate(-6922.55 -6333.13)"/><path class="cls-4" d="M7076.17,7023.6a9.12,9.12,0,1,1-9.12-9.11A9.13,9.13,0,0,1,7076.17,7023.6Z" transform="translate(-6922.55 -6333.13)"/><path class="cls-4" d="M7076.17,7290.11a9.12,9.12,0,1,1-9.12-9.12A9.12,9.12,0,0,1,7076.17,7290.11Z" transform="translate(-6922.55 -6333.13)"/><path class="cls-4" d="M7342.65,7023.6a9.12,9.12,0,1,1-9.12-9.11A9.13,9.13,0,0,1,7342.65,7023.6Z" transform="translate(-6922.55 -6333.13)"/><path class="cls-4" d="M7342.65,7290.11a9.12,9.12,0,1,1-9.12-9.12A9.12,9.12,0,0,1,7342.65,7290.11Z" transform="translate(-6922.55 -6333.13)"/><path class="cls-6" d="M7322.57,7157.37a121.76,121.76,0,1,1-121.75-121.77A121.79,121.79,0,0,1,7322.57,7157.37Z" transform="translate(-6922.55 -6333.13)"/><path class="cls-9" d="M7310.38,7157.37a109.57,109.57,0,1,1-109.56-109.58A109.59,109.59,0,0,1,7310.38,7157.37Z" transform="translate(-6922.55 -6333.13)"/><path class="cls-10" d="M7300.57,7157.37a99.74,99.74,0,1,1-99.76-99.72A99.74,99.74,0,0,1,7300.57,7157.37Z" transform="translate(-6922.55 -6333.13)"/><path class="cls-11" d="M7200.83,7173.57c38.63,0,73.62-10.49,99.1-27.48a99.74,99.74,0,0,0-198.19,0C7127.24,7163.09,7162.23,7173.57,7200.83,7173.57Z" transform="translate(-6922.55 -6333.13)"/><path class="cls-12" d="M7252.34,7106.53c0,19.27-23.06,34.87-51.53,34.87s-51.54-15.6-51.54-34.87,23.1-34.9,51.54-34.9S7252.34,7087.27,7252.34,7106.53Z" transform="translate(-6922.55 -6333.13)"/><path class="cls-11" d="M7214.68,7238.51c0,5.19-6.21,9.39-13.87,9.39s-13.88-4.2-13.88-9.39,6.22-9.39,13.88-9.39S7214.68,7233.32,7214.68,7238.51Z" transform="translate(-6922.55 -6333.13)"/></svg>