<?xml version="1.0" encoding="utf-8"?>
<!-- Generator: Adobe Illustrator 24.1.2, SVG Export Plug-In . SVG Version: 6.00 Build 0)  -->
<svg version="1.1" id="Layer_1" xmlns="http://www.w3.org/2000/svg" xmlns:xlink="http://www.w3.org/1999/xlink" x="0px" y="0px"
	 viewBox="0 0 315.1 985.7" style="enable-background:new 0 0 315.1 985.7;" xml:space="preserve">
<style type="text/css">
	.st0{fill:#4C4A4F;}
	.st1{fill:#848187;}
	.st2{fill:#36333A;}
	.st3{fill:#6D6A71;}
	.st4{fill:#3E3C40;}
	.st5{fill:#2C2B2E;}
	.st6{fill:#B41F24;}
	.st7{fill:#EA1F25;}
	.st8{fill:#EC402B;}
	.st9{fill:#F27660;}
	.st10{fill:#535056;}
	.st11{fill:#3E3B42;}
</style>
<g>
	<g>
		<path class="st0" d="M158.3,830.9c-18.5,0-33.6-2.7-33.6-6.1v154.9c0,3.4,15,6.1,33.6,6.1s33.6-2.7,33.6-6.1V824.8
			C191.9,828.2,176.8,830.9,158.3,830.9z"/>
		<path class="st1" d="M179.3,964.8c0,3.1-2.6,5.7-5.7,5.7l0,0c-3.1,0-5.7-2.6-5.7-5.7v-119c0-3.1,2.6-5.7,5.7-5.7l0,0
			c3.1,0,5.7,2.6,5.7,5.7V964.8z"/>
		<path class="st2" d="M191.9,824.8c0,4.2-15,7.6-33.6,7.6s-33.6-3.4-33.6-7.6c0-4.2,15-7.6,33.6-7.6S191.9,820.6,191.9,824.8z"/>
		<path class="st3" d="M133.4,372.4v448.4c0,2.5,11.2,4.6,24.9,4.6c13.8,0,24.9-2,24.9-4.6V372.4H133.4z"/>
		<rect x="133.4" y="547.8" class="st0" width="49.8" height="46.8"/>
		<path class="st1" d="M172.8,802.8c0,3.1-2.6,5.7-5.7,5.7l0,0c-3.1,0-5.7-2.6-5.7-5.7V606.1c0-3.1,2.6-5.7,5.7-5.7l0,0
			c3.1,0,5.7,2.6,5.7,5.7V802.8z"/>
	</g>
	<g>
		<path class="st4" d="M95.3,51c-0.1-1.5-1.4-2.7-3-2.7H2.9c-1.1,0-2,0.6-2.6,1.5s-0.5,2,0.1,3c9.8,15.9,16.9,36.9,23.8,57.2
			c12.1,35.9,15.7,69.7,41.1,69.7h35.8c0.8,0,1.6-0.3,2.2-0.9c0.6-0.6,0.9-1.4,0.8-2.2L95.3,51z"/>
		<path class="st4" d="M95.3,228c-0.1-1.5-1.4-2.7-3-2.7H2.9c-1.1,0-2,0.6-2.6,1.5s-0.5,2,0.1,3c9.8,15.9,16.9,36.9,23.8,57.2
			c12.1,35.9,15.7,69.7,41.1,69.7h35.8c0.8,0,1.6-0.3,2.2-0.9c0.6-0.6,0.9-1.4,0.8-2.2L95.3,228z"/>
		<path class="st4" d="M95.3,405.1c-0.1-1.5-1.4-2.7-3-2.7H2.9c-1.1,0-2,0.6-2.6,1.5s-0.5,2,0.1,3c9.8,15.9,16.9,36.9,23.8,57.2
			c12.1,35.9,15.7,69.7,41.1,69.7h35.8c0.8,0,1.6-0.3,2.2-0.9c0.6-0.6,0.9-1.4,0.8-2.2L95.3,405.1z"/>
		<path class="st4" d="M219.8,51c0.1-1.5,1.4-2.7,3-2.7h89.4c1.1,0,2,0.6,2.6,1.5c0.5,0.9,0.5,2-0.1,3
			c-9.8,15.9-16.9,36.9-23.8,57.2c-12.1,35.9-15.7,69.7-41.1,69.7H214c-0.8,0-1.6-0.3-2.2-0.9c-0.6-0.6-0.9-1.4-0.8-2.2L219.8,51z"
			/>
		<path class="st4" d="M219.8,228c0.1-1.5,1.4-2.7,3-2.7h89.4c1.1,0,2,0.6,2.6,1.5c0.5,0.9,0.5,2-0.1,3
			c-9.8,15.9-16.9,36.9-23.8,57.2c-12.1,35.9-15.7,69.7-41.1,69.7H214c-0.8,0-1.6-0.3-2.2-0.9c-0.6-0.6-0.9-1.4-0.8-2.2L219.8,228z"
			/>
		<path class="st4" d="M219.8,405.1c0.1-1.5,1.4-2.7,3-2.7h89.4c1.1,0,2,0.6,2.6,1.5c0.5,0.9,0.5,2-0.1,3
			c-9.8,15.9-16.9,36.9-23.8,57.2c-12.1,35.9-15.7,69.7-41.1,69.7H214c-0.8,0-1.6-0.3-2.2-0.9c-0.6-0.6-0.9-1.4-0.8-2.2L219.8,405.1
			z"/>
		<g>
			<path class="st2" d="M232.5,57.7c0,9.1-7.3,16.4-16.5,16.4H99.9c-9.1,0-16.4-7.4-16.4-16.4V16.5C83.4,7.4,90.8,0,99.9,0H216
				c9.1,0,16.5,7.4,16.5,16.5V57.7z"/>
			<path class="st2" d="M232.5,564.5c0,9.1-7.3,16.4-16.5,16.4H99.9c-9.1,0-16.4-7.4-16.4-16.4v-41.2c0-9.1,7.3-16.5,16.4-16.5H216
				c9.1,0,16.5,7.4,16.5,16.5V564.5z"/>
			<path class="st2" d="M219.6,416.1c0,7.5-6.1,13.6-13.7,13.6h-96c-7.5,0-13.6-6.1-13.6-13.6v-34.1c0-7.5,6.1-13.6,13.6-13.6h96
				c7.6,0,13.7,6.1,13.7,13.6V416.1z"/>
			<path class="st5" d="M249.8,557.3c0,1.4-1.1,2.6-2.6,2.6H68.6c-1.4,0-2.6-1.1-2.6-2.6V24.7c0-1.4,1.1-2.6,2.6-2.6h178.6
				c1.4,0,2.6,1.1,2.6,2.6V557.3z"/>
			<g>
				<path class="st4" d="M244,195.9c0,1.4-1.1,2.6-2.6,2.6H74.5c-1.4,0-2.6-1.1-2.6-2.6V29c0-1.4,1.1-2.6,2.6-2.6h166.9
					c1.4,0,2.6,1.1,2.6,2.6L244,195.9L244,195.9z"/>
				<path class="st0" d="M239,112.5c0,44.5-36.1,80.7-80.7,80.7c-44.6,0-80.7-36.1-80.7-80.7c0-44.6,36.1-80.7,80.7-80.7
					S239,67.9,239,112.5z"/>
				<path class="st3" d="M87.4,36.4c0,2.8-2.3,5.2-5.2,5.2s-5.2-2.3-5.2-5.2s2.3-5.2,5.2-5.2S87.4,33.5,87.4,36.4z"/>
				<path class="st3" d="M87.4,188c0,2.8-2.3,5.2-5.2,5.2s-5.2-2.3-5.2-5.2c0-2.8,2.3-5.2,5.2-5.2S87.4,185.2,87.4,188z"/>
				<path class="st3" d="M239,36.4c0,2.8-2.3,5.2-5.2,5.2c-2.8,0-5.2-2.3-5.2-5.2s2.3-5.2,5.2-5.2C236.7,31.2,239,33.5,239,36.4z"/>
				<path class="st3" d="M239,188c0,2.8-2.3,5.2-5.2,5.2c-2.8,0-5.2-2.3-5.2-5.2c0-2.8,2.3-5.2,5.2-5.2
					C236.7,182.8,239,185.2,239,188z"/>
				<path class="st5" d="M227.6,112.5c0,38.2-31,69.3-69.3,69.3S89,150.8,89,112.5s31-69.3,69.3-69.3
					C196.5,43.2,227.6,74.2,227.6,112.5z"/>
				<path class="st6" d="M220.7,112.5c0,34.4-27.9,62.4-62.4,62.4S96,146.9,96,112.5s27.9-62.4,62.4-62.4
					C192.7,50.2,220.7,78.1,220.7,112.5z"/>
				<path class="st7" d="M215.1,112.5c0,31.3-25.4,56.8-56.8,56.8s-56.7-25.4-56.7-56.8c0-31.3,25.4-56.7,56.7-56.7
					S215.1,81.2,215.1,112.5z"/>
				<path class="st8" d="M166.2,158.4c0,3-3.5,5.3-7.9,5.3c-4.4,0-7.9-2.4-7.9-5.3c0-3,3.5-5.3,7.9-5.3S166.2,155.5,166.2,158.4z"/>
				<path class="st8" d="M158.3,121.7c22,0,41.9-6,56.4-15.6c-3.2-28.3-27.2-50.3-56.4-50.3c-29.2,0-53.2,22-56.4,50.3
					C116.4,115.8,136.3,121.7,158.3,121.7z"/>
				<path class="st9" d="M187.6,83.6c0,11-13.1,19.9-29.3,19.9S129,94.5,129,83.6s13.1-19.9,29.3-19.9
					C174.5,63.7,187.6,72.6,187.6,83.6z"/>
			</g>
			<g>
				<path class="st4" d="M244,374.2c0,1.4-1.1,2.6-2.6,2.6H74.4c-1.4,0-2.6-1.1-2.6-2.6V207.2c0-1.4,1.1-2.6,2.6-2.6h166.9
					c1.4,0,2.6,1.1,2.6,2.6V374.2z"/>
				<path class="st0" d="M239,290.7c0,44.5-36.1,80.7-80.7,80.7c-44.6,0-80.7-36.1-80.7-80.7c0-44.6,36.1-80.7,80.7-80.7
					S239,246.1,239,290.7z"/>
				<path class="st3" d="M87.4,214.6c0,2.8-2.3,5.2-5.2,5.2s-5.2-2.3-5.2-5.2c0-2.8,2.3-5.2,5.2-5.2S87.4,211.7,87.4,214.6z"/>
				<path class="st3" d="M87.4,366.2c0,2.8-2.3,5.2-5.2,5.2s-5.2-2.3-5.2-5.2c0-2.8,2.3-5.2,5.2-5.2S87.4,363.3,87.4,366.2z"/>
				<path class="st3" d="M239,214.6c0,2.8-2.3,5.2-5.2,5.2c-2.8,0-5.2-2.3-5.2-5.2c0-2.8,2.3-5.2,5.2-5.2
					C236.7,209.4,239,211.7,239,214.6z"/>
				<path class="st3" d="M239,366.2c0,2.8-2.3,5.2-5.2,5.2c-2.8,0-5.2-2.3-5.2-5.2c0-2.8,2.3-5.2,5.2-5.2
					C236.7,361,239,363.3,239,366.2z"/>
				<path class="st5" d="M227.6,290.7c0,38.2-31,69.3-69.3,69.3S89,329,89,290.7s31-69.3,69.3-69.3
					C196.5,221.4,227.6,252.4,227.6,290.7z"/>
				<path class="st0" d="M220.7,290.7c0,34.4-27.9,62.4-62.4,62.4S96,325.1,96,290.7s27.9-62.4,62.4-62.4
					C192.7,228.4,220.7,256.2,220.7,290.7z"/>
				<path class="st2" d="M215.1,290.7c0,31.3-25.4,56.8-56.8,56.8s-56.7-25.4-56.7-56.8c0-31.3,25.4-56.7,56.7-56.7
					S215.1,259.4,215.1,290.7z"/>
				<path class="st10" d="M166.2,336.4c0,3-3.5,5.3-7.9,5.3c-4.4,0-7.9-2.4-7.9-5.3c0-3,3.5-5.3,7.9-5.3
					C162.7,331.2,166.2,333.5,166.2,336.4z"/>
				<path class="st11" d="M158.3,299.9c22,0,41.9-6,56.4-15.6c-3.2-28.3-27.2-50.3-56.4-50.3c-29.2,0-53.2,22-56.4,50.3
					C116.4,293.9,136.3,299.9,158.3,299.9z"/>
				<path class="st10" d="M187.6,261.7c0,11-13.1,19.9-29.3,19.9s-29.3-8.9-29.3-19.9c0-11,13.1-19.9,29.3-19.9
					C174.5,241.9,187.6,250.8,187.6,261.7z"/>
			</g>
			<g>
				<path class="st4" d="M244,552.3c0,1.4-1.1,2.6-2.6,2.6H74.5c-1.4,0-2.6-1.1-2.6-2.6V385.4c0-1.4,1.1-2.6,2.6-2.6h166.9
					c1.4,0,2.6,1.1,2.6,2.6L244,552.3L244,552.3z"/>
				<path class="st0" d="M239,468.9c0,44.5-36.1,80.7-80.7,80.7c-44.6,0-80.7-36.1-80.7-80.7s36.1-80.7,80.7-80.7
					C202.8,388.2,239,424.3,239,468.9z"/>
				<path class="st3" d="M87.4,392.8c0,2.8-2.3,5.2-5.2,5.2s-5.2-2.3-5.2-5.2c0-2.8,2.3-5.2,5.2-5.2S87.4,389.9,87.4,392.8z"/>
				<path class="st3" d="M87.4,544.4c0,2.8-2.3,5.2-5.2,5.2s-5.2-2.3-5.2-5.2c0-2.8,2.3-5.2,5.2-5.2
					C85.1,539.2,87.4,541.5,87.4,544.4z"/>
				<path class="st3" d="M239,392.8c0,2.8-2.3,5.2-5.2,5.2c-2.8,0-5.2-2.3-5.2-5.2c0-2.8,2.3-5.2,5.2-5.2
					C236.7,387.6,239,389.9,239,392.8z"/>
				<path class="st3" d="M239,544.4c0,2.8-2.3,5.2-5.2,5.2c-2.8,0-5.2-2.3-5.2-5.2c0-2.8,2.3-5.2,5.2-5.2
					C236.7,539.2,239,541.5,239,544.4z"/>
				<path class="st5" d="M227.6,468.9c0,38.2-31,69.3-69.3,69.3S89,507.2,89,468.9s31-69.3,69.3-69.3
					C196.5,399.6,227.6,430.6,227.6,468.9z"/>
				<path class="st0" d="M220.7,468.9c0,34.4-27.9,62.4-62.4,62.4S96,503.3,96,468.9s27.9-62.4,62.4-62.4
					C192.7,406.5,220.7,434.5,220.7,468.9z"/>
				<path class="st2" d="M215.1,468.9c0,31.3-25.4,56.8-56.8,56.8s-56.7-25.4-56.7-56.8c0-31.3,25.4-56.7,56.7-56.7
					S215.1,437.5,215.1,468.9z"/>
				<path class="st11" d="M158.3,478.1c22,0,41.9-6,56.4-15.6c-3.2-28.3-27.2-50.3-56.4-50.3c-29.2,0-53.2,22-56.4,50.3
					C116.4,472.1,136.3,478.1,158.3,478.1z"/>
				<path class="st10" d="M187.6,440c0,11-13.1,19.9-29.3,19.9S129,451,129,440c0-11,13.1-19.9,29.3-19.9
					C174.5,420.1,187.6,429,187.6,440z"/>
				<path class="st10" d="M166.2,515.1c0,3-3.5,5.3-7.9,5.3c-4.4,0-7.9-2.4-7.9-5.3c0-3,3.5-5.3,7.9-5.3S166.2,512.1,166.2,515.1z"
					/>
			</g>
		</g>
	</g>
</g>
</svg>
